<svg width="359" height="266" viewBox="0 0 359 266" fill="none" xmlns="http://www.w3.org/2000/svg">
<path d="M103.102 49.8339C102.8 49.8339 102.559 49.6288 102.559 49.3633C102.559 49.0978 102.8 48.8926 103.102 48.8926C103.403 48.8926 103.645 49.0978 103.645 49.3633C103.645 49.6288 103.403 49.8339 103.102 49.8339Z" fill="#EFEEED"/>
<path d="M92.811 50.4978C92.0871 50.4978 91.496 49.991 91.496 49.3634C91.496 48.7359 92.0871 48.229 92.811 48.229C93.5348 48.229 94.126 48.7359 94.126 49.3634C94.126 49.991 93.5348 50.4978 92.811 50.4978Z" fill="#EFEEED"/>
<path d="M82.5186 50.7274C81.6524 50.7274 80.9502 50.1169 80.9502 49.3637C80.9502 48.6106 81.6524 48 82.5186 48C83.3847 48 84.0869 48.6106 84.0869 49.3637C84.0869 50.1169 83.3847 50.7274 82.5186 50.7274Z" fill="#EFEEED"/>
<path d="M72.2303 50.6789C71.3978 50.6789 70.7222 50.0876 70.7222 49.3635C70.7222 48.6394 71.3978 48.0481 72.2303 48.0481C73.0627 48.0481 73.7383 48.6394 73.7383 49.3635C73.7383 50.0876 73.0627 50.6789 72.2303 50.6789Z" fill="#EFEEED"/>
<path d="M61.9389 50.1842C61.4192 50.1842 60.9979 49.8168 60.9979 49.3636C60.9979 48.9104 61.4192 48.543 61.9389 48.543C62.4586 48.543 62.8799 48.9104 62.8799 49.3636C62.8799 49.8168 62.4586 50.1842 61.9389 50.1842Z" fill="#EFEEED"/>
<path d="M51.647 49.4607C51.5865 49.4607 51.5381 49.4123 51.5381 49.3638C51.5381 49.3153 51.5865 49.2668 51.647 49.2668C51.7075 49.2668 51.7559 49.3153 51.7559 49.3638C51.7559 49.4123 51.7075 49.4607 51.647 49.4607Z" fill="#EFEEED"/>
<path d="M113.393 59.0662C112.886 59.0662 112.476 58.7162 112.476 58.2696C112.476 57.8231 112.886 57.4731 113.393 57.4731C113.899 57.4731 114.31 57.8231 114.31 58.2696C114.31 58.7162 113.899 59.0662 113.393 59.0662Z" fill="#EFEEED"/>
<path d="M103.102 59.9112C102.063 59.9112 101.22 59.1818 101.22 58.282C101.22 57.3822 102.063 56.6528 103.102 56.6528C104.142 56.6528 104.984 57.3822 104.984 58.282C104.984 59.1818 104.142 59.9112 103.102 59.9112Z" fill="#EFEEED"/>
<path d="M92.8107 59.9353C91.749 59.9353 90.9045 59.1992 90.9045 58.282C90.9045 57.3648 91.7611 56.6287 92.8107 56.6287C93.8602 56.6287 94.7168 57.3648 94.7168 58.282C94.7168 59.1992 93.8602 59.9353 92.8107 59.9353Z" fill="#EFEEED"/>
<path d="M82.5206 59.9353C81.459 59.9353 80.6145 59.1992 80.6145 58.282C80.6145 57.3648 81.471 56.6287 82.5206 56.6287C83.5702 56.6287 84.4268 57.3648 84.4268 58.282C84.4268 59.1992 83.5702 59.9353 82.5206 59.9353Z" fill="#EFEEED"/>
<path d="M72.2296 59.9353C71.168 59.9353 70.3235 59.1992 70.3235 58.282C70.3235 57.3648 71.18 56.6287 72.2296 56.6287C73.2792 56.6287 74.1357 57.3648 74.1357 58.282C74.1357 59.1992 73.2792 59.9353 72.2296 59.9353Z" fill="#EFEEED"/>
<path d="M61.9376 59.9353C60.876 59.9353 60.0315 59.1992 60.0315 58.282C60.0315 57.3648 60.888 56.6287 61.9376 56.6287C62.9872 56.6287 63.8438 57.3648 63.8438 58.282C63.8438 59.1992 62.9872 59.9353 61.9376 59.9353Z" fill="#EFEEED"/>
<path d="M51.6487 59.6575C50.7681 59.6575 50.0563 59.0421 50.0563 58.2697C50.0563 57.4973 50.7681 56.8818 51.6487 56.8818C52.5294 56.8818 53.2412 57.4973 53.2412 58.2697C53.2412 59.0421 52.5294 59.6575 51.6487 59.6575Z" fill="#EFEEED"/>
<path d="M41.3568 58.4521C41.248 58.4521 41.1512 58.3794 41.1512 58.2824C41.1512 58.1855 41.2359 58.1128 41.3568 58.1128C41.4778 58.1128 41.5625 58.1855 41.5625 58.2824C41.5625 58.3794 41.4778 58.4521 41.3568 58.4521Z" fill="#EFEEED"/>
<path d="M154.553 67.3465C154.457 67.3465 154.384 67.2738 154.384 67.2011C154.384 67.1284 154.457 67.0557 154.553 67.0557C154.65 67.0557 154.723 67.1284 154.723 67.2011C154.723 67.2738 154.65 67.3465 154.553 67.3465Z" fill="#EFEEED"/>
<path d="M144.264 68.1292C143.661 68.1292 143.178 67.7068 143.178 67.1879C143.178 66.669 143.661 66.2466 144.264 66.2466C144.867 66.2466 145.35 66.669 145.35 67.1879C145.35 67.7068 144.867 68.1292 144.264 68.1292Z" fill="#EFEEED"/>
<path d="M133.972 68.3466C133.236 68.3466 132.633 67.8277 132.633 67.1881C132.633 66.5485 133.236 66.0295 133.972 66.0295C134.708 66.0295 135.312 66.5485 135.312 67.1881C135.312 67.8277 134.708 68.3466 133.972 68.3466Z" fill="#EFEEED"/>
<path d="M123.683 68.1056C123.096 68.1056 122.621 67.695 122.621 67.1884C122.621 66.6819 123.096 66.2712 123.683 66.2712C124.269 66.2712 124.744 66.6819 124.744 67.1884C124.744 67.695 124.269 68.1056 123.683 68.1056Z" fill="#EFEEED"/>
<path d="M113.391 68.8175C112.354 68.8175 111.509 68.0813 111.509 67.1883C111.509 66.2952 112.354 65.5591 113.391 65.5591C114.429 65.5591 115.273 66.2952 115.273 67.1883C115.273 68.0813 114.429 68.8175 113.391 68.8175Z" fill="#EFEEED"/>
<path d="M103.102 68.8416C102.049 68.8416 101.196 68.1014 101.196 67.1882C101.196 66.2751 102.049 65.5349 103.102 65.5349C104.154 65.5349 105.008 66.2751 105.008 67.1882C105.008 68.1014 104.154 68.8416 103.102 68.8416Z" fill="#EFEEED"/>
<path d="M92.8107 68.8416C91.749 68.8416 90.9045 68.1054 90.9045 67.1882C90.9045 66.2711 91.7611 65.5349 92.8107 65.5349C93.8602 65.5349 94.7168 66.2711 94.7168 67.1882C94.7168 68.1054 93.8602 68.8416 92.8107 68.8416Z" fill="#EFEEED"/>
<path d="M82.5206 68.8416C81.4679 68.8416 80.6145 68.1014 80.6145 67.1882C80.6145 66.2751 81.4679 65.5349 82.5206 65.5349C83.5734 65.5349 84.4268 66.2751 84.4268 67.1882C84.4268 68.1014 83.5734 68.8416 82.5206 68.8416Z" fill="#EFEEED"/>
<path d="M72.2296 68.8416C71.168 68.8416 70.3235 68.1054 70.3235 67.1882C70.3235 66.2711 71.18 65.5349 72.2296 65.5349C73.2792 65.5349 74.1357 66.2711 74.1357 67.1882C74.1357 68.1054 73.2792 68.8416 72.2296 68.8416Z" fill="#EFEEED"/>
<path d="M61.9376 68.8416C60.8849 68.8416 60.0315 68.1014 60.0315 67.1882C60.0315 66.2751 60.8849 65.5349 61.9376 65.5349C62.9903 65.5349 63.8438 66.2751 63.8438 67.1882C63.8438 68.1014 62.9903 68.8416 61.9376 68.8416Z" fill="#EFEEED"/>
<path d="M51.6486 68.8416C50.5869 68.8416 49.7424 68.1054 49.7424 67.1882C49.7424 66.2711 50.599 65.5349 51.6486 65.5349C52.6981 65.5349 53.5547 66.2711 53.5547 67.1882C53.5547 68.1054 52.6981 68.8416 51.6486 68.8416Z" fill="#EFEEED"/>
<path d="M41.3579 68.4796C40.5376 68.4796 39.874 67.9003 39.874 67.1883C39.874 66.4763 40.5376 65.897 41.3579 65.897C42.1783 65.897 42.8418 66.4763 42.8418 67.1883C42.8418 67.9003 42.1783 68.4796 41.3579 68.4796Z" fill="#EFEEED"/>
<path d="M31.0784 68.4312C30.2942 68.4312 29.6548 67.876 29.6548 67.2002C29.6548 66.5244 30.2942 65.9692 31.0784 65.9692C31.8626 65.9692 32.502 66.5244 32.502 67.2002C32.502 67.876 31.8626 68.4312 31.0784 68.4312Z" fill="#EFEEED"/>
<path d="M20.7871 68.3948C20.0142 68.3948 19.3876 67.8545 19.3876 67.188C19.3876 66.5215 20.0142 65.9812 20.7871 65.9812C21.56 65.9812 22.1865 66.5215 22.1865 67.188C22.1865 67.8545 21.56 68.3948 20.7871 68.3948Z" fill="#EFEEED"/>
<path d="M10.4964 67.5381C10.2792 67.5381 10.0983 67.3812 10.0983 67.1881C10.0983 66.995 10.2792 66.8381 10.4964 66.8381C10.7136 66.8381 10.8945 66.995 10.8945 67.1881C10.8945 67.3812 10.7136 67.5381 10.4964 67.5381Z" fill="#EFEEED"/>
<path d="M164.833 76.1312C164.833 76.1312 164.809 76.1312 164.809 76.1069C164.809 76.0825 164.821 76.0825 164.833 76.0825C164.845 76.0825 164.857 76.0825 164.857 76.1069C164.857 76.1312 164.845 76.1312 164.833 76.1312Z" fill="#EFEEED"/>
<path d="M154.555 77.3617C153.747 77.3617 153.095 76.7945 153.095 76.1067C153.095 75.4188 153.747 74.8516 154.555 74.8516C155.363 74.8516 156.015 75.4188 156.015 76.1067C156.015 76.7945 155.363 77.3617 154.555 77.3617Z" fill="#EFEEED"/>
<path d="M144.264 77.76C143.202 77.76 142.358 77.0239 142.358 76.1067C142.358 75.1895 143.214 74.4534 144.264 74.4534C145.313 74.4534 146.17 75.1895 146.17 76.1067C146.17 77.0239 145.313 77.76 144.264 77.76Z" fill="#EFEEED"/>
<path d="M133.975 77.76C132.913 77.76 132.069 77.0239 132.069 76.1067C132.069 75.1895 132.925 74.4534 133.975 74.4534C135.024 74.4534 135.881 75.1895 135.881 76.1067C135.881 77.0239 135.024 77.76 133.975 77.76Z" fill="#EFEEED"/>
<path d="M123.683 77.76C122.621 77.76 121.777 77.0239 121.777 76.1067C121.777 75.1895 122.633 74.4534 123.683 74.4534C124.732 74.4534 125.589 75.1895 125.589 76.1067C125.589 77.0239 124.732 77.76 123.683 77.76Z" fill="#EFEEED"/>
<path d="M113.392 77.76C112.33 77.76 111.486 77.0239 111.486 76.1067C111.486 75.1895 112.342 74.4534 113.392 74.4534C114.441 74.4534 115.298 75.1895 115.298 76.1067C115.298 77.0239 114.441 77.76 113.392 77.76Z" fill="#EFEEED"/>
<path d="M103.102 77.76C102.04 77.76 101.196 77.0239 101.196 76.1067C101.196 75.1895 102.052 74.4534 103.102 74.4534C104.151 74.4534 105.008 75.1895 105.008 76.1067C105.008 77.0239 104.151 77.76 103.102 77.76Z" fill="#EFEEED"/>
<path d="M92.8107 77.76C91.749 77.76 90.9045 77.0239 90.9045 76.1067C90.9045 75.1895 91.7611 74.4534 92.8107 74.4534C93.8602 74.4534 94.7168 75.1895 94.7168 76.1067C94.7168 77.0239 93.8602 77.76 92.8107 77.76Z" fill="#EFEEED"/>
<path d="M82.5206 77.76C81.459 77.76 80.6145 77.0239 80.6145 76.1067C80.6145 75.1895 81.471 74.4534 82.5206 74.4534C83.5702 74.4534 84.4268 75.1895 84.4268 76.1067C84.4268 77.0239 83.5702 77.76 82.5206 77.76Z" fill="#EFEEED"/>
<path d="M72.2296 77.76C71.168 77.76 70.3235 77.0239 70.3235 76.1067C70.3235 75.1895 71.18 74.4534 72.2296 74.4534C73.2792 74.4534 74.1357 75.1895 74.1357 76.1067C74.1357 77.0239 73.2792 77.76 72.2296 77.76Z" fill="#EFEEED"/>
<path d="M61.9376 77.76C60.876 77.76 60.0315 77.0239 60.0315 76.1067C60.0315 75.1895 60.888 74.4534 61.9376 74.4534C62.9872 74.4534 63.8438 75.1895 63.8438 76.1067C63.8438 77.0239 62.9872 77.76 61.9376 77.76Z" fill="#EFEEED"/>
<path d="M51.6486 77.76C50.5869 77.76 49.7424 77.0239 49.7424 76.1067C49.7424 75.1895 50.599 74.4534 51.6486 74.4534C52.6981 74.4534 53.5547 75.1895 53.5547 76.1067C53.5547 77.0239 52.6981 77.76 51.6486 77.76Z" fill="#EFEEED"/>
<path d="M41.3566 77.76C40.2949 77.76 39.4504 77.0239 39.4504 76.1067C39.4504 75.1895 40.307 74.4534 41.3566 74.4534C42.4061 74.4534 43.2627 75.1895 43.2627 76.1067C43.2627 77.0239 42.4061 77.76 41.3566 77.76Z" fill="#EFEEED"/>
<path d="M31.0782 77.76C30.0166 77.76 29.1721 77.0239 29.1721 76.1067C29.1721 75.1895 30.0287 74.4534 31.0782 74.4534C32.1278 74.4534 32.9844 75.1895 32.9844 76.1067C32.9844 77.0239 32.1278 77.76 31.0782 77.76Z" fill="#EFEEED"/>
<path d="M20.7882 77.76C19.7266 77.76 18.8821 77.0239 18.8821 76.1067C18.8821 75.1895 19.7386 74.4534 20.7882 74.4534C21.8378 74.4534 22.6943 75.1895 22.6943 76.1067C22.6943 77.0239 21.8378 77.76 20.7882 77.76Z" fill="#EFEEED"/>
<path d="M10.4975 77.567C9.5686 77.567 8.80856 76.9153 8.80856 76.1068C8.80856 75.2982 9.55653 74.6465 10.4975 74.6465C11.4385 74.6465 12.1865 75.2982 12.1865 76.1068C12.1865 76.9153 11.4385 77.567 10.4975 77.567Z" fill="#EFEEED"/>
<path d="M0.205349 76.1796C0.205349 76.1796 0.120678 76.1432 0.120678 76.1069C0.120678 76.0705 0.15696 76.0342 0.205349 76.0342C0.253738 76.0342 0.290039 76.0705 0.290039 76.1069C0.290039 76.1432 0.253738 76.1796 0.205349 76.1796Z" fill="#EFEEED"/>
<path d="M164.832 85.1955C164.724 85.1955 164.627 85.1228 164.627 85.0258C164.627 84.9289 164.711 84.8562 164.832 84.8562C164.953 84.8562 165.038 84.9289 165.038 85.0258C165.038 85.1228 164.953 85.1955 164.832 85.1955Z" fill="#EFEEED"/>
<path d="M154.556 86.4009C153.676 86.4009 152.964 85.7796 152.964 85.0131C152.964 84.2466 153.676 83.6252 154.556 83.6252C155.435 83.6252 156.148 84.2466 156.148 85.0131C156.148 85.7796 155.435 86.4009 154.556 86.4009Z" fill="#EFEEED"/>
<path d="M144.264 86.4009C143.383 86.4009 142.672 85.7855 142.672 85.0131C142.672 84.2408 143.383 83.6252 144.264 83.6252C145.145 83.6252 145.856 84.2408 145.856 85.0131C145.856 85.7855 145.145 86.4009 144.264 86.4009Z" fill="#EFEEED"/>
<path d="M133.973 86.4009C133.092 86.4009 132.381 85.7855 132.381 85.0131C132.381 84.2408 133.092 83.6252 133.973 83.6252C134.854 83.6252 135.565 84.2408 135.565 85.0131C135.565 85.7855 134.854 86.4009 133.973 86.4009Z" fill="#EFEEED"/>
<path d="M123.684 86.4009C122.803 86.4009 122.091 85.7855 122.091 85.0131C122.091 84.2408 122.803 83.6252 123.684 83.6252C124.565 83.6252 125.276 84.2408 125.276 85.0131C125.276 85.7855 124.565 86.4009 123.684 86.4009Z" fill="#EFEEED"/>
<path d="M113.391 86.4009C112.51 86.4009 111.798 85.7855 111.798 85.0131C111.798 84.2408 112.51 83.6252 113.391 83.6252C114.272 83.6252 114.983 84.2408 114.983 85.0131C114.983 85.7855 114.272 86.4009 113.391 86.4009Z" fill="#EFEEED"/>
<path d="M103.102 86.4009C102.221 86.4009 101.509 85.7855 101.509 85.0131C101.509 84.2408 102.221 83.6252 103.102 83.6252C103.983 83.6252 104.694 84.2408 104.694 85.0131C104.694 85.7855 103.983 86.4009 103.102 86.4009Z" fill="#EFEEED"/>
<path d="M92.8099 86.4009C91.9292 86.4009 91.2174 85.7855 91.2174 85.0131C91.2174 84.2408 91.9292 83.6252 92.8099 83.6252C93.6906 83.6252 94.4023 84.2408 94.4023 85.0131C94.4023 85.7855 93.6906 86.4009 92.8099 86.4009Z" fill="#EFEEED"/>
<path d="M82.5198 86.4009C81.6403 86.4009 80.9274 85.7796 80.9274 85.0131C80.9274 84.2466 81.6403 83.6252 82.5198 83.6252C83.3993 83.6252 84.1123 84.2466 84.1123 85.0131C84.1123 85.7796 83.3993 86.4009 82.5198 86.4009Z" fill="#EFEEED"/>
<path d="M72.2288 86.4009C71.3481 86.4009 70.6364 85.7855 70.6364 85.0131C70.6364 84.2408 71.3481 83.6252 72.2288 83.6252C73.1095 83.6252 73.8213 84.2408 73.8213 85.0131C73.8213 85.7855 73.1095 86.4009 72.2288 86.4009Z" fill="#EFEEED"/>
<path d="M61.9378 86.4009C61.0571 86.4009 60.3453 85.7855 60.3453 85.0131C60.3453 84.2408 61.0571 83.6252 61.9378 83.6252C62.8185 83.6252 63.5303 84.2408 63.5303 85.0131C63.5303 85.7855 62.8185 86.4009 61.9378 86.4009Z" fill="#EFEEED"/>
<path d="M51.6487 86.4009C50.7681 86.4009 50.0563 85.7855 50.0563 85.0131C50.0563 84.2408 50.7681 83.6252 51.6487 83.6252C52.5294 83.6252 53.2412 84.2408 53.2412 85.0131C53.2412 85.7855 52.5294 86.4009 51.6487 86.4009Z" fill="#EFEEED"/>
<path d="M41.3568 86.4009C40.4761 86.4009 39.7643 85.7855 39.7643 85.0131C39.7643 84.2408 40.4761 83.6252 41.3568 83.6252C42.2374 83.6252 42.9492 84.2408 42.9492 85.0131C42.9492 85.7855 42.2374 86.4009 41.3568 86.4009Z" fill="#EFEEED"/>
<path d="M31.0794 86.4009C30.1987 86.4009 29.4869 85.7855 29.4869 85.0131C29.4869 84.2408 30.1987 83.6252 31.0794 83.6252C31.9601 83.6252 32.6719 84.2408 32.6719 85.0131C32.6719 85.7855 31.9601 86.4009 31.0794 86.4009Z" fill="#EFEEED"/>
<path d="M20.7874 86.4009C19.9067 86.4009 19.195 85.7855 19.195 85.0131C19.195 84.2408 19.9067 83.6252 20.7874 83.6252C21.6681 83.6252 22.3799 84.2408 22.3799 85.0131C22.3799 85.7855 21.6681 86.4009 20.7874 86.4009Z" fill="#EFEEED"/>
<path d="M10.4983 86.4009C9.61885 86.4009 8.90589 85.7796 8.90589 85.0131C8.90589 84.2466 9.61885 83.6252 10.4983 83.6252C11.3778 83.6252 12.0908 84.2466 12.0908 85.0131C12.0908 85.7796 11.3778 86.4009 10.4983 86.4009Z" fill="#EFEEED"/>
<path d="M0.205481 85.1955C0.096606 85.1955 -0.000169903 85.1228 -0.000169903 85.0258C-0.000169903 84.9289 0.0845087 84.8562 0.205481 84.8562C0.326454 84.8562 0.411133 84.9289 0.411133 85.0258C0.411133 85.1228 0.326454 85.1955 0.205481 85.1955Z" fill="#EFEEED"/>
<g clip-path="url(#clip0_2139_2354)">
<path d="M349.316 146.508C353.522 160.75 356.757 175.255 359 189.926L347.778 189.856L341.368 150.206L349.316 146.508Z" fill="#F9AF3D"/>
<path d="M259.636 232.771V262.876H339.185L341.368 232.771H259.636Z" fill="#13161D"/>
<path d="M123.317 209.058V263.593H166.816V205.311L123.317 209.058Z" fill="#13161D"/>
<path d="M262.315 93.5559C262.315 93.5559 250.721 113.033 246.823 156.598L236.42 127.879L210.096 140.784C210.096 140.784 220.698 219.497 253.098 207.894C285.499 196.291 295.673 73.4318 262.315 93.5559Z" fill="#FACB55"/>
<path d="M208.887 152.587L238.035 137.568L246.341 133.287C246.951 132.973 246.412 132.062 245.806 132.375L216.658 147.395L208.352 151.676C207.746 151.989 208.282 152.9 208.887 152.587Z" fill="white"/>
<path d="M218.182 135.204C218.727 139.081 219.751 142.877 221.233 146.508C221.488 147.131 222.515 146.86 222.26 146.23C220.779 142.596 219.751 138.793 219.206 134.909C219.114 134.24 218.09 134.525 218.182 135.19V135.204Z" fill="white"/>
<path d="M227.983 131.38C229.064 134.757 230.215 138.114 231.441 141.445C231.675 142.079 232.703 141.797 232.469 141.168C231.243 137.836 230.088 134.479 229.007 131.098C228.802 130.455 227.774 130.729 227.983 131.38Z" fill="white"/>
<path d="M220.885 158.794C220.772 159.188 220.783 159.606 220.907 159.993C221.034 160.384 221.272 160.725 221.594 160.982C221.934 161.256 222.356 161.408 222.795 161.411C223.206 161.408 223.607 161.284 223.947 161.059C224.351 160.792 224.649 160.391 224.787 159.926C224.815 159.793 224.794 159.656 224.723 159.539C224.652 159.423 224.539 159.339 224.408 159.304C224.276 159.269 224.135 159.283 224.018 159.346C223.901 159.409 223.805 159.518 223.763 159.645C223.756 159.694 223.738 159.744 223.717 159.786C223.745 159.719 223.749 159.708 223.717 159.761L223.692 159.814L223.621 159.923C223.607 159.944 223.593 159.965 223.578 159.986C223.621 159.933 223.628 159.919 223.603 159.951C223.578 159.983 223.483 160.12 223.401 160.148L223.451 160.109L223.387 160.155L223.26 160.233C223.231 160.233 223.185 160.285 223.157 160.282C223.228 160.254 223.235 160.254 223.178 160.282L223.107 160.306C223.026 160.342 222.941 160.359 222.852 160.366C222.887 160.366 222.983 160.366 222.852 160.366H222.629H222.696C222.696 160.366 222.569 160.335 222.547 160.331C222.526 160.328 222.398 160.268 222.469 160.306C222.54 160.345 222.413 160.271 222.398 160.264C222.363 160.24 222.328 160.215 222.289 160.194C222.257 160.173 222.267 160.194 222.321 160.222C222.299 160.208 222.282 160.19 222.264 160.173C222.193 160.12 222.129 160.057 222.083 159.983C222.15 160.109 222.083 159.983 222.055 159.937C222.026 159.891 222.016 159.874 221.998 159.839L221.966 159.772C221.941 159.719 221.945 159.726 221.966 159.796C221.948 159.761 221.934 159.726 221.927 159.687C221.927 159.641 221.899 159.592 221.888 159.543C221.888 159.518 221.888 159.494 221.888 159.469V159.536C221.849 159.487 221.888 159.335 221.888 159.276C221.888 159.216 221.888 159.226 221.888 159.304C221.888 159.279 221.888 159.254 221.888 159.23C221.888 159.181 221.913 159.135 221.927 159.086C221.966 158.952 221.948 158.811 221.881 158.692C221.814 158.572 221.704 158.48 221.573 158.438C221.438 158.403 221.296 158.421 221.176 158.484C221.056 158.551 220.963 158.66 220.917 158.79H220.885V158.794Z" fill="white"/>
<path d="M235.884 164.451C235.271 165.534 236.062 166.78 237.132 167.174C237.394 167.265 237.677 167.297 237.954 167.269C238.23 167.241 238.499 167.149 238.74 167.005C239.233 166.702 239.605 166.245 239.803 165.707C240.016 165.144 240.034 164.525 239.857 163.948C239.814 163.821 239.722 163.712 239.601 163.649C239.481 163.585 239.343 163.568 239.212 163.603C239.081 163.638 238.967 163.722 238.896 163.839C238.825 163.955 238.804 164.092 238.832 164.226C238.864 164.321 238.886 164.419 238.903 164.521C238.925 164.616 238.903 164.412 238.903 164.549V164.718C238.907 164.813 238.907 164.908 238.903 165.003C238.903 165.077 238.928 164.905 238.903 164.975C238.903 164.993 238.903 165.014 238.903 165.031C238.903 165.087 238.879 165.14 238.864 165.197C238.847 165.292 238.818 165.38 238.772 165.464C238.847 165.355 238.772 165.464 238.747 165.51C238.723 165.555 238.694 165.608 238.666 165.657C238.638 165.707 238.62 165.728 238.595 165.763C238.584 165.784 238.57 165.805 238.553 165.823C238.638 165.745 238.588 165.781 238.553 165.802C238.485 165.876 238.418 165.942 238.343 166.009C238.273 166.076 238.361 166.009 238.368 166.009C238.351 166.023 238.329 166.041 238.308 166.051C238.269 166.08 238.227 166.104 238.184 166.129C238.142 166.154 238.106 166.164 238.071 166.185C238.035 166.206 238.163 166.161 238.095 166.185L238.007 166.217L237.862 166.252C237.769 166.277 237.971 166.252 237.837 166.252H237.638C237.525 166.227 237.426 166.224 237.376 166.171C237.422 166.217 237.451 166.21 237.401 166.171L237.334 166.136C237.284 166.111 237.238 166.083 237.192 166.051L237.132 166.009L237.167 166.034C237.135 166.034 237.078 165.96 237.054 165.935C237.018 165.904 236.986 165.869 236.954 165.83L236.919 165.788C236.873 165.745 236.976 165.872 236.919 165.788C236.862 165.703 236.859 165.7 236.834 165.65C236.82 165.629 236.809 165.608 236.799 165.587C236.752 165.503 236.774 165.587 236.799 165.587C236.823 165.587 236.756 165.464 236.749 165.439L236.731 165.369C236.71 165.288 236.76 165.348 236.731 165.39V165.186C236.731 165.077 236.71 165.267 236.731 165.207C236.752 165.147 236.756 165.105 236.77 165.056C236.799 164.954 236.77 165.084 236.77 165.08C236.77 165.077 236.813 165 236.82 164.985C236.855 164.926 236.877 164.859 236.887 164.792C236.898 164.722 236.894 164.655 236.877 164.584C236.859 164.518 236.827 164.454 236.784 164.398C236.742 164.342 236.689 164.296 236.628 164.261C236.568 164.226 236.501 164.201 236.434 164.194C236.363 164.183 236.295 164.19 236.225 164.208C236.157 164.226 236.093 164.257 236.037 164.299C235.98 164.342 235.934 164.394 235.899 164.454H235.881L235.884 164.451Z" fill="white"/>
<path d="M233.178 189.479L234.91 191.059C235.148 191.309 235.428 191.52 235.736 191.682C235.899 191.752 236.076 191.784 236.253 191.777C236.43 191.77 236.604 191.727 236.764 191.646C237.352 191.354 237.653 190.718 237.947 190.169L239.067 188.093C239.389 187.491 238.471 186.96 238.149 187.558L237.214 189.293C237.065 189.571 236.919 189.856 236.76 190.13C236.668 190.327 236.533 190.507 236.37 190.654C236.324 190.693 236.271 190.718 236.211 190.728C236.151 190.711 236.094 190.682 236.041 190.647C235.817 190.471 235.608 190.281 235.41 190.081L233.929 188.726C233.426 188.265 232.671 189.011 233.178 189.472V189.479Z" fill="white"/>
<path d="M255.603 127.531C255.455 127.767 255.355 128.027 255.309 128.298C255.263 128.572 255.274 128.85 255.341 129.118C255.409 129.385 255.525 129.638 255.692 129.86C255.859 130.082 256.068 130.268 256.309 130.409C256.369 130.444 256.436 130.465 256.503 130.476C256.574 130.486 256.642 130.483 256.713 130.465C256.78 130.447 256.844 130.416 256.9 130.374C256.957 130.331 257.003 130.279 257.039 130.219C257.074 130.159 257.099 130.092 257.106 130.025C257.116 129.955 257.113 129.888 257.095 129.821C257.077 129.754 257.046 129.691 257.003 129.635C256.961 129.578 256.907 129.533 256.847 129.498L256.716 129.42C256.645 129.371 256.716 129.42 256.748 129.445C256.78 129.469 256.705 129.41 256.688 129.392L256.592 129.297C256.578 129.276 256.56 129.255 256.539 129.237C256.564 129.255 256.613 129.339 256.567 129.269C256.514 129.188 256.468 129.107 256.425 129.023C256.379 128.931 256.468 129.146 256.425 129.047L256.404 128.984C256.387 128.938 256.372 128.889 256.362 128.84C256.362 128.794 256.362 128.752 256.337 128.706C256.376 128.885 256.337 128.724 256.337 128.671C256.333 128.622 256.333 128.572 256.337 128.523V128.456C256.337 128.435 256.312 128.59 256.337 128.502C256.362 128.414 256.397 128.312 256.415 128.217C256.411 128.147 256.376 128.076 256.323 128.03C256.27 127.981 256.199 127.957 256.124 127.96C256.05 127.96 255.983 127.992 255.933 128.045C255.883 128.097 255.855 128.164 255.855 128.238C255.855 128.312 255.883 128.379 255.933 128.432C255.983 128.484 256.053 128.512 256.124 128.516C256.195 128.516 256.266 128.491 256.323 128.446C256.376 128.396 256.408 128.33 256.415 128.259C256.415 128.259 256.433 128.22 256.447 128.199C256.472 128.154 256.5 128.108 256.532 128.062C256.603 127.943 256.624 127.798 256.588 127.661C256.553 127.527 256.464 127.411 256.34 127.341C256.22 127.274 256.075 127.256 255.94 127.292C255.805 127.327 255.688 127.415 255.614 127.531H255.6H255.603Z" fill="white"/>
<path d="M260.525 24.4056C260.525 24.4056 266.857 4.70375 294.599 7.07853C322.34 9.45331 317.277 40.716 317.277 40.716C317.277 40.716 334.076 39.9068 335.408 51.3092C336.741 62.7117 320.203 65.0795 313.793 54.4756C313.793 54.4756 307.876 68.7771 296.696 67.7181C296.707 67.7287 262.467 47.0311 260.525 24.4056Z" fill="#13161D"/>
<path d="M294.379 27.639C300.495 25.0074 306.274 21.6721 311.6 17.6966C313.102 16.5743 314.566 15.4027 315.994 14.1784C316.514 13.7351 315.76 12.9928 315.242 13.4325C310.239 17.6896 304.75 21.352 298.886 24.3389C297.231 25.1833 295.552 25.9714 293.84 26.7067C293.213 26.9776 293.755 27.8888 294.379 27.6179V27.639Z" fill="white"/>
<path d="M296.533 31.3613C296.509 32.4203 296.703 33.4722 297.1 34.4538C297.497 35.4354 298.092 36.3255 298.851 37.0713C299.336 37.5498 300.091 36.804 299.602 36.3255C298.946 35.6781 298.429 34.9006 298.085 34.0492C297.742 33.1943 297.575 32.2796 297.596 31.3613C297.614 30.6823 296.551 30.6823 296.533 31.3613Z" fill="white"/>
<path d="M300.328 30.8301L301.93 33.7924C302.001 33.9121 302.118 34 302.256 34.0352C302.394 34.0704 302.536 34.0528 302.66 33.9824C302.777 33.9085 302.865 33.7924 302.901 33.6587C302.936 33.5251 302.919 33.3808 302.851 33.2612L301.246 30.2954C301.175 30.1757 301.058 30.0878 300.92 30.0526C300.786 30.0174 300.64 30.0385 300.516 30.1089C300.396 30.1793 300.307 30.2954 300.272 30.4326C300.236 30.5663 300.258 30.7105 300.328 30.8336V30.8301Z" fill="white"/>
<path d="M316.603 42.3698C316.401 45.7367 315.264 48.984 313.322 51.7528C312.929 52.3122 313.85 52.8399 314.24 52.284C316.281 49.3569 317.468 45.9266 317.666 42.3698C317.705 41.6907 316.642 41.6943 316.603 42.3698Z" fill="white"/>
<path d="M260.526 24.4058C260.526 24.4058 243.05 74.0334 274.161 74.0334V78.3467L296.707 72.4396V59.0987C296.707 59.0987 311.696 56.263 310.984 44.6741C310.272 33.0851 295.995 41.8384 295.995 41.8384C295.995 41.8384 289.334 40.4311 290.283 29.7921C290.283 29.8062 266.932 31.998 260.526 24.4058Z" fill="#F9A45B"/>
<path d="M301.249 44.885C298.613 46.8447 296.838 49.7331 296.288 52.9558C296.264 53.0683 296.274 53.1844 296.32 53.29C296.366 53.3955 296.444 53.4835 296.544 53.5398C296.643 53.5961 296.76 53.6207 296.873 53.6101C296.986 53.5996 297.096 53.5503 297.178 53.4729C297.833 52.9135 298.503 52.3788 299.198 51.8686C299.524 51.6294 299.857 51.3972 300.19 51.165C300.388 51.0313 300.767 50.69 301.008 50.8695C301.129 50.9328 301.27 50.9504 301.405 50.9117C301.536 50.873 301.65 50.7885 301.72 50.6689C301.791 50.5493 301.809 50.4121 301.777 50.2784C301.745 50.1447 301.66 50.0321 301.543 49.9583C300.707 49.3285 299.669 50.2327 299.01 50.7041C298.12 51.3409 297.259 52.0129 296.427 52.72L297.312 53.2337C297.794 50.2784 299.4 47.6151 301.798 45.7962C302.341 45.3916 301.798 44.4769 301.263 44.885H301.249Z" fill="#13161D"/>
<path d="M274.16 74.0333C274.16 74.0333 282.452 73.1151 287.863 67.7815C287.863 67.7815 284.585 78.0968 274.16 78.0933V74.0333Z" fill="#13161D"/>
<path d="M296.707 72.4431L296.788 81.3019C296.788 81.3019 319.112 83.1525 335.486 99.1567C351.86 115.161 341.368 232.771 341.368 232.771H259.636V219.971C259.636 219.971 241.277 229.573 262.315 93.5558C262.315 93.5558 265.075 88.1307 273.703 85.9037L274.16 78.3502L296.707 72.4431Z" fill="#FACB55"/>
<path d="M270.883 86.6988C279.72 84.901 288.525 82.9519 297.295 80.8516C299.786 80.2535 302.267 79.6448 304.737 79.0221C305.399 78.8568 305.119 77.8365 304.453 78.0054C295.711 80.1937 286.927 82.2307 278.101 84.1129C275.596 84.6477 273.087 85.1684 270.582 85.6785C269.912 85.8158 270.195 86.8325 270.865 86.6988H270.883Z" fill="white"/>
<path d="M281.126 75.6728L280.899 83.2018C280.899 83.8808 281.962 83.8808 281.962 83.2018L282.189 75.6728C282.207 74.9938 281.144 74.9938 281.126 75.6728Z" fill="white"/>
<path d="M289.985 72.7597C289.893 75.6763 289.673 78.5859 289.329 81.4849C289.251 82.1604 290.314 82.1533 290.392 81.4849C290.74 78.5894 290.959 75.6798 291.048 72.7597C291.069 72.0807 290.006 72.0807 289.985 72.7597Z" fill="white"/>
<path d="M267.92 95.7863C267.3 96.8417 266.68 98.0098 267.034 99.2552C267.335 100.311 268.366 101.099 269.486 100.729C269.766 100.652 270.018 100.501 270.216 100.29C270.415 100.078 270.549 99.8181 270.609 99.5367C270.645 99.403 270.627 99.2657 270.56 99.1426C270.493 99.023 270.386 98.9315 270.255 98.8893C270.12 98.8541 269.975 98.8717 269.851 98.9421C269.731 99.0124 269.639 99.125 269.603 99.2587C269.592 99.3185 269.578 99.3783 269.561 99.4381C269.585 99.3537 269.561 99.4381 269.536 99.4768C269.493 99.5753 269.585 99.4417 269.515 99.512C269.515 99.5296 269.359 99.6527 269.451 99.5824C269.412 99.6105 269.373 99.6352 269.334 99.6598C269.334 99.6598 269.185 99.7266 269.291 99.6844C269.238 99.7055 269.185 99.7231 269.132 99.7372C269.107 99.7372 268.94 99.7653 269.057 99.7548C269.008 99.7583 268.962 99.7583 268.912 99.7548C268.912 99.7548 268.735 99.7548 268.792 99.7548C268.848 99.7548 268.692 99.7231 268.678 99.7196C268.561 99.695 268.731 99.7618 268.629 99.7196C268.452 99.6246 268.31 99.4804 268.211 99.308C268.001 98.9104 267.948 98.4495 268.065 98.0168C268.239 97.4187 268.508 96.8487 268.855 96.3316C268.919 96.212 268.937 96.0712 268.898 95.9375C268.859 95.8074 268.774 95.6948 268.653 95.6244C268.533 95.5541 268.395 95.5365 268.26 95.5681C268.126 95.5998 268.009 95.6842 267.938 95.7968L267.92 95.7827V95.7863Z" fill="white"/>
<path d="M281.807 107.066C281.314 108.1 280.797 109.289 281.247 110.433C281.424 110.943 281.785 111.365 282.26 111.622C282.487 111.731 282.735 111.791 282.983 111.794C283.235 111.801 283.483 111.752 283.716 111.657C283.986 111.555 284.223 111.379 284.397 111.15C284.57 110.922 284.677 110.647 284.705 110.362C284.705 110.222 284.648 110.088 284.549 109.989C284.45 109.891 284.315 109.835 284.174 109.835C284.032 109.835 283.897 109.891 283.798 109.989C283.699 110.088 283.642 110.222 283.642 110.362C283.642 110.236 283.642 110.387 283.621 110.415C283.6 110.443 283.621 110.443 283.621 110.39C283.61 110.419 283.596 110.443 283.582 110.468C283.582 110.496 283.483 110.58 283.561 110.499L283.468 110.591C283.438 110.617 283.438 110.617 283.468 110.591L283.408 110.626C283.362 110.651 283.32 110.679 283.27 110.7C283.355 110.665 283.27 110.7 283.224 110.7L283.089 110.732C283.206 110.707 283.089 110.732 283.047 110.732C282.994 110.735 282.94 110.735 282.887 110.732H282.912L282.824 110.711C282.799 110.711 282.678 110.651 282.781 110.711L282.639 110.633C282.59 110.594 282.583 110.594 282.618 110.633L282.558 110.58C282.512 110.538 282.469 110.496 282.43 110.45C282.363 110.376 282.43 110.485 282.384 110.39C282.267 110.222 282.189 110.028 282.15 109.824C282.15 109.824 282.122 109.655 282.15 109.75V109.588C282.143 109.448 282.15 109.307 282.168 109.166C282.281 108.624 282.473 108.1 282.735 107.611C282.802 107.488 282.82 107.347 282.785 107.21C282.749 107.076 282.664 106.96 282.544 106.886C282.423 106.823 282.285 106.809 282.15 106.844C282.019 106.879 281.906 106.964 281.835 107.076L281.807 107.066Z" fill="white"/>
<path d="M271.053 138.24C270.808 138.733 270.719 139.292 270.801 139.834C270.882 140.379 271.131 140.886 271.513 141.287C271.903 141.67 272.41 141.92 272.952 141.998C273.498 142.075 274.05 141.977 274.536 141.716C275.099 141.428 275.535 140.946 275.765 140.362C275.804 140.228 275.787 140.087 275.723 139.964C275.655 139.845 275.546 139.753 275.411 139.711C275.273 139.676 275.131 139.697 275.007 139.764C274.887 139.834 274.794 139.947 274.755 140.08C274.798 139.978 274.716 140.154 274.706 140.172C274.695 140.189 274.638 140.277 274.603 140.334C274.568 140.383 274.568 140.39 274.603 140.334L274.539 140.404C274.497 140.453 274.451 140.495 274.405 140.541C274.359 140.587 274.238 140.671 274.327 140.608C274.274 140.647 274.22 140.682 274.164 140.714C274.111 140.749 274.054 140.78 273.994 140.809L273.944 140.83C273.831 140.875 273.71 140.911 273.59 140.939H273.012C272.948 140.925 272.888 140.907 272.828 140.886L272.69 140.879C272.736 140.879 272.739 140.9 272.707 140.879C272.597 140.826 272.491 140.766 272.396 140.692C272.484 140.759 272.335 140.636 272.321 140.622C272.307 140.608 272.233 140.527 272.19 140.481C272.147 140.432 272.147 140.436 272.19 140.481L272.133 140.4C272.098 140.348 272.066 140.295 272.034 140.239C272.002 140.182 271.974 140.126 271.945 140.066C271.992 140.165 271.945 140.01 271.921 139.992C271.882 139.876 271.853 139.76 271.832 139.64C271.853 139.76 271.832 139.567 271.832 139.542V139.352C271.832 139.289 271.857 139.134 271.832 139.253C271.832 139.19 271.857 139.13 271.871 139.067C271.885 139.004 271.91 138.944 271.928 138.884C271.945 138.824 271.953 138.824 271.928 138.884L271.981 138.768C272.045 138.648 272.059 138.511 272.023 138.381C271.988 138.251 271.903 138.138 271.79 138.064C271.669 138.001 271.531 137.983 271.396 138.019C271.265 138.054 271.152 138.135 271.081 138.251L271.053 138.24Z" fill="white"/>
<path d="M266.992 180.142C266.832 181.317 266.68 182.605 267.314 183.681C267.569 184.093 267.941 184.42 268.381 184.621C268.823 184.821 269.312 184.888 269.794 184.814C270.053 184.775 270.301 184.677 270.514 184.526C270.726 184.374 270.9 184.174 271.02 183.942C271.084 183.822 271.098 183.681 271.063 183.551C271.027 183.421 270.946 183.308 270.829 183.238C270.709 183.175 270.57 183.161 270.436 183.196C270.305 183.231 270.191 183.315 270.12 183.428L270.064 183.53C270.064 183.548 270.035 183.569 270.025 183.59C270.014 183.611 270.092 183.516 270.053 183.555L269.979 183.632C269.933 183.678 269.879 183.699 269.979 183.653C269.943 183.671 269.911 183.699 269.876 183.716C269.84 183.734 269.773 183.79 269.826 183.745C269.855 183.745 269.879 183.699 269.826 183.745L269.773 183.762C269.727 183.776 269.681 183.79 269.635 183.797C269.603 183.797 269.511 183.797 269.578 183.797C269.646 183.797 269.546 183.797 269.518 183.797H269.252C269.164 183.797 269.295 183.797 269.298 183.797C269.281 183.797 269.259 183.797 269.242 183.797L269.125 183.773C269.036 183.752 268.951 183.716 268.862 183.688C268.774 183.66 268.894 183.688 268.898 183.706L268.845 183.678C268.802 183.66 268.76 183.639 268.721 183.614L268.621 183.555C268.6 183.555 268.494 183.463 268.547 183.505C268.6 183.548 268.497 183.46 268.48 183.446L268.398 183.361L268.32 183.273C268.402 183.365 268.32 183.249 268.285 183.21C268.168 183.037 268.086 182.844 268.04 182.64C268.012 182.534 267.991 182.429 267.973 182.323C267.955 182.218 267.973 182.278 267.973 182.299V182.028C267.955 181.746 267.955 181.465 267.973 181.187C267.973 181.057 267.998 180.923 268.012 180.793C268.012 180.719 268.012 180.645 268.04 180.571V180.487C268.04 180.385 268.04 180.61 268.04 180.434C268.072 180.3 268.055 180.156 267.984 180.036C267.913 179.917 267.799 179.825 267.668 179.787C267.534 179.751 267.388 179.769 267.264 179.839C267.14 179.91 267.052 180.022 267.013 180.156L266.992 180.142Z" fill="white"/>
<path d="M276.711 164.986C276.711 165.862 276.782 166.783 277.384 167.473C277.643 167.747 277.983 167.927 278.355 167.997C278.727 168.064 279.11 168.011 279.45 167.846C279.648 167.751 279.819 167.603 279.943 167.424C280.067 167.241 280.141 167.033 280.159 166.811C280.159 166.671 280.102 166.537 280.003 166.439C279.9 166.34 279.769 166.287 279.627 166.284C279.485 166.284 279.351 166.34 279.252 166.439C279.159 166.541 279.103 166.674 279.096 166.811C279.096 166.811 279.124 166.685 279.096 166.734C279.067 166.783 279.096 166.766 279.096 166.783C279.057 166.889 279.096 166.801 279.096 166.783C279.135 166.678 279.096 166.783 279.096 166.804C279.096 166.815 279.096 166.822 279.096 166.833C279.053 166.906 279.096 166.801 279.131 166.79C279.113 166.804 279.099 166.822 279.085 166.84C279.067 166.84 278.989 166.921 279.067 166.84C279.145 166.759 279.067 166.84 279.046 166.84L278.972 166.878C278.872 166.931 279.078 166.843 279 166.878L278.918 166.903H278.794C278.734 166.903 278.922 166.903 278.862 166.903H278.603C278.486 166.903 278.727 166.931 278.603 166.903L278.437 166.861C278.415 166.85 278.391 166.843 278.366 166.836C278.422 166.861 278.511 166.871 278.366 166.836L278.288 166.79C278.199 166.702 278.245 166.762 278.288 166.79C278.242 166.745 278.189 166.702 278.146 166.653L278.111 166.611C278.072 166.569 278.139 166.646 278.139 166.65C278.139 166.653 278.086 166.576 278.072 166.548C278.057 166.519 277.994 166.389 277.948 166.315C277.948 166.315 277.987 166.414 277.969 166.361C277.969 166.344 277.969 166.33 277.969 166.312C277.955 166.273 277.941 166.235 277.93 166.192C277.905 166.111 277.887 166.03 277.87 165.95C277.87 165.904 277.87 165.858 277.841 165.809C277.841 165.791 277.841 165.774 277.841 165.756C277.841 165.809 277.841 165.848 277.841 165.756C277.841 165.665 277.824 165.573 277.816 165.482V164.898C277.816 164.757 277.76 164.623 277.661 164.525C277.561 164.426 277.427 164.37 277.285 164.37C277.143 164.37 277.009 164.426 276.909 164.525C276.81 164.623 276.753 164.757 276.753 164.898L276.711 164.986Z" fill="white"/>
<path d="M266.085 205.072C266.772 207.018 269.834 207.369 270.883 205.543C270.947 205.424 270.961 205.287 270.925 205.156C270.89 205.026 270.805 204.914 270.691 204.84C270.571 204.769 270.426 204.752 270.287 204.787C270.153 204.822 270.036 204.91 269.965 205.03L269.876 205.167C269.82 205.259 269.94 205.104 269.876 205.188C269.813 205.259 269.749 205.322 269.678 205.385C269.6 205.459 269.759 205.336 269.66 205.385L269.561 205.452L269.441 205.519C269.412 205.519 269.274 205.593 269.402 205.54C269.239 205.603 269.072 205.653 268.898 205.677C269.04 205.653 268.898 205.677 268.856 205.677H268.711C268.622 205.684 268.533 205.684 268.445 205.677C268.413 205.677 268.261 205.649 268.402 205.677L268.278 205.656L268.002 205.582L267.889 205.54C267.775 205.501 267.963 205.582 267.864 205.54C267.765 205.498 267.697 205.456 267.619 205.406L267.52 205.339C267.633 205.417 267.495 205.318 267.47 205.297C267.446 205.276 267.361 205.185 267.304 205.128C267.247 205.072 267.35 205.206 267.279 205.093C267.254 205.054 267.226 205.016 267.205 204.977C267.183 204.938 267.166 204.907 267.148 204.872C267.123 204.822 267.13 204.836 267.148 204.872C267.148 204.843 267.13 204.819 267.12 204.794C267.077 204.664 266.985 204.555 266.865 204.492C266.744 204.425 266.602 204.407 266.468 204.442C266.337 204.485 266.223 204.572 266.159 204.696C266.092 204.815 266.078 204.959 266.113 205.09L266.085 205.072Z" fill="white"/>
<path d="M307.206 134.335C306.802 135.317 306.54 136.611 307.284 137.502C308.141 138.529 309.764 138.135 310.508 137.21C310.955 136.615 311.288 135.947 311.493 135.232C311.532 135.099 311.515 134.958 311.451 134.835C311.383 134.712 311.274 134.624 311.139 134.581C311.004 134.546 310.863 134.564 310.742 134.631C310.622 134.698 310.53 134.803 310.487 134.933C310.398 135.183 310.313 135.436 310.211 135.679C310.239 135.612 310.179 135.753 310.168 135.774C310.157 135.795 310.115 135.883 310.087 135.94C310.026 136.056 309.963 136.172 309.892 136.291L309.789 136.443L309.722 136.524L309.594 136.654L309.544 136.699C309.544 136.699 309.438 136.787 309.488 136.749C309.537 136.71 309.488 136.749 309.466 136.749L309.389 136.801L309.243 136.882C309.218 136.882 309.087 136.953 309.179 136.918L309.002 136.977C308.942 136.995 308.882 137.002 308.822 137.02C308.758 137.02 308.698 137.051 308.651 137.097C308.609 137.143 308.584 137.206 308.584 137.269C308.584 137.333 308.613 137.396 308.659 137.438C308.705 137.484 308.768 137.509 308.832 137.509C308.896 137.509 308.96 137.484 309.006 137.438C309.052 137.393 309.08 137.333 309.08 137.269C309.08 137.206 309.059 137.143 309.013 137.097C308.97 137.051 308.907 137.023 308.843 137.02H308.595C308.595 137.02 308.506 137.02 308.574 137.02C308.641 137.02 308.527 137.02 308.513 137.02C308.499 137.02 308.414 136.991 308.361 136.977C308.308 136.963 308.428 137.016 308.361 136.977C308.343 136.963 308.322 136.953 308.301 136.946C308.301 136.946 308.162 136.847 308.209 136.886C308.255 136.925 308.209 136.886 308.184 136.861L308.113 136.791L308.074 136.745C308.024 136.699 308.106 136.819 308.074 136.745C308.053 136.703 308.031 136.664 308.003 136.626C308.003 136.626 308.003 136.59 307.975 136.576C307.946 136.562 308 136.661 307.975 136.594C307.95 136.527 307.939 136.492 307.929 136.443C307.918 136.393 307.907 136.351 307.897 136.305V136.242C307.89 136.126 307.89 136.006 307.897 135.89V135.718C307.897 135.697 307.897 135.672 307.897 135.651C307.918 135.524 307.946 135.398 307.978 135.275C308.046 135.035 308.127 134.8 308.223 134.571C308.258 134.437 308.244 134.297 308.177 134.173C308.109 134.054 308 133.962 307.868 133.92C307.734 133.885 307.592 133.902 307.472 133.969C307.351 134.036 307.259 134.142 307.213 134.272L307.202 134.335H307.206Z" fill="white"/>
<path d="M293.561 88.8099C294.025 90.861 297.168 91.6244 298.493 89.9533C298.589 89.8512 298.642 89.7175 298.642 89.5803C298.642 89.4431 298.589 89.3094 298.493 89.2074C298.394 89.1089 298.259 89.0561 298.117 89.0561C297.976 89.0561 297.841 89.1124 297.742 89.2074C297.682 89.2883 297.611 89.3622 297.536 89.4291C297.536 89.4291 297.405 89.5416 297.462 89.4994C297.519 89.4572 297.387 89.5487 297.377 89.5557C297.292 89.6085 297.207 89.6542 297.115 89.6929C297.2 89.6542 297.115 89.6929 297.083 89.6929L296.962 89.7316C296.867 89.7598 296.767 89.7809 296.668 89.795C296.803 89.7738 296.647 89.795 296.615 89.795H296.158C296.055 89.795 296.25 89.8161 296.126 89.795L295.977 89.7633L295.701 89.6894L295.559 89.6366H295.584L295.506 89.5979C295.414 89.5557 295.325 89.5065 295.244 89.4502C295.205 89.4291 295.173 89.4044 295.134 89.3798C295.095 89.3552 295.191 89.4326 295.091 89.3411C295.024 89.2813 294.957 89.218 294.896 89.1511C294.875 89.13 294.772 88.9893 294.843 89.0948C294.822 89.0597 294.797 89.0245 294.772 88.9893L294.709 88.8802C294.709 88.8591 294.627 88.6902 294.673 88.8134C294.638 88.7184 294.609 88.6234 294.585 88.5249C294.57 88.4545 294.539 88.3877 294.496 88.3314C294.454 88.2716 294.4 88.2258 294.34 88.1871C294.28 88.1484 294.209 88.1273 294.138 88.1168C294.067 88.1062 293.993 88.1133 293.926 88.1308C293.855 88.1484 293.791 88.1836 293.734 88.2258C293.678 88.2716 293.631 88.3279 293.596 88.3877C293.561 88.451 293.543 88.5214 293.536 88.5917C293.529 88.6621 293.536 88.736 293.561 88.8028V88.8099Z" fill="white"/>
<path d="M256.124 220.654C262.244 221.667 268.384 222.512 274.55 223.184C280.715 223.856 286.913 224.362 293.139 224.7C299.35 225.034 305.565 225.2 311.787 225.193C318.01 225.185 324.228 225.006 330.447 224.658C336.655 224.306 342.853 223.785 349.036 223.092C349.805 223.008 350.57 222.916 351.339 222.825C352.009 222.747 352.019 221.692 351.339 221.769C345.198 222.501 339.036 223.064 332.857 223.458C326.677 223.852 320.494 224.074 314.307 224.123C308.088 224.179 301.869 224.063 295.658 223.771C289.446 223.479 283.274 223.025 277.147 222.403C270.978 221.776 264.827 220.978 258.7 220.007C257.935 219.887 257.173 219.771 256.411 219.655C255.741 219.546 255.451 220.563 256.128 220.672V220.654H256.124Z" fill="white"/>
<path d="M269.926 222.079L269.529 238.263C269.529 238.942 270.592 238.942 270.592 238.263L270.989 222.079C270.989 221.4 269.926 221.4 269.926 222.079Z" fill="white"/>
<path d="M309.414 83.93C309.414 83.93 299.056 88.37 292.313 128.917C286.998 160.901 285.308 225.78 284.833 251.758C284.805 253.215 285.071 254.657 285.609 256.012C286.148 257.366 286.952 258.601 287.973 259.643C288.993 260.688 290.212 261.518 291.558 262.095C292.905 262.668 294.354 262.971 295.818 262.988L347.771 263.488C349.238 263.502 350.694 263.228 352.055 262.679C353.416 262.13 354.652 261.321 355.694 260.297C356.736 259.27 357.565 258.052 358.128 256.705C358.692 255.357 358.982 253.919 358.982 252.458V189.912L300.839 189.56C300.839 189.56 294.337 135.598 319.36 87.8C319.36 87.8 315.267 83.2088 309.41 83.9265L309.414 83.93Z" fill="#F9AF3D"/>
<path d="M332.573 224.19H352.77L352.267 223.687V251.241L352.77 250.742L343.912 250.555L329.827 250.27L326.571 250.203L327.074 250.703V224.411C327.074 224.278 327.021 224.151 326.925 224.056C326.829 223.961 326.702 223.912 326.571 223.912C326.439 223.912 326.308 223.965 326.216 224.056C326.124 224.148 326.067 224.278 326.067 224.411V250.703C326.067 250.837 326.124 250.96 326.216 251.055C326.312 251.146 326.436 251.202 326.571 251.202L335.468 251.385L349.557 251.667L352.813 251.734C352.948 251.734 353.072 251.681 353.167 251.586C353.263 251.491 353.316 251.364 353.316 251.234V223.704C353.316 223.634 353.302 223.567 353.274 223.504C353.245 223.44 353.203 223.384 353.153 223.338C353.104 223.293 353.043 223.257 352.976 223.233C352.909 223.208 352.841 223.201 352.77 223.205H332.573C332.446 223.215 332.329 223.272 332.244 223.367C332.158 223.458 332.109 223.581 332.109 223.708C332.109 223.834 332.155 223.954 332.244 224.049C332.329 224.141 332.449 224.2 332.573 224.211V224.193V224.19Z" fill="#13161D"/>
<path d="M328.494 228.236L333.009 232.19L335.301 234.196L336.364 235.114C336.697 235.455 337.062 235.765 337.452 236.036C338.249 236.504 338.947 235.715 339.525 235.255L341.92 233.341L346.64 229.573L351.962 225.316C352.469 224.911 351.753 224.207 351.254 224.612L342.423 231.648L340.234 233.408L339.206 234.227L338.66 234.664C338.483 234.846 338.281 235.005 338.061 235.135C337.799 235.223 337.395 234.706 337.193 234.526L336.081 233.555L333.99 231.712L329.206 227.529C328.721 227.106 328.005 227.81 328.498 228.232H328.494V228.236Z" fill="#13161D"/>
<path d="M299.152 224.19H319.349L318.846 223.687V251.242L319.349 250.742L310.452 250.563L296.363 250.278L293.107 250.211L293.61 250.71V224.412C293.61 224.278 293.557 224.151 293.461 224.06C293.365 223.965 293.238 223.912 293.107 223.912C292.976 223.912 292.844 223.965 292.752 224.06C292.657 224.155 292.604 224.282 292.604 224.412V250.703C292.604 250.837 292.66 250.96 292.752 251.055C292.848 251.15 292.972 251.203 293.107 251.203L302.004 251.386L316.093 251.667L319.349 251.734C319.484 251.734 319.608 251.681 319.703 251.586C319.799 251.491 319.852 251.368 319.852 251.235V223.705C319.852 223.571 319.796 223.448 319.703 223.353C319.611 223.258 319.484 223.205 319.349 223.205H299.152C299.024 223.216 298.907 223.272 298.822 223.367C298.737 223.458 298.688 223.582 298.688 223.708C298.688 223.835 298.737 223.954 298.822 224.049C298.907 224.141 299.028 224.201 299.152 224.211V224.194V224.19Z" fill="#13161D"/>
<path d="M295.07 228.236L299.584 232.19L301.877 234.196L302.94 235.114C303.273 235.455 303.638 235.765 304.028 236.036C304.825 236.504 305.523 235.715 306.101 235.255L308.496 233.341L313.216 229.573L318.542 225.316C319.045 224.911 318.329 224.207 317.833 224.612L309.006 231.648L306.817 233.408L305.793 234.227L305.243 234.664C305.066 234.846 304.864 235.008 304.644 235.135C304.382 235.223 303.978 234.706 303.776 234.526L302.664 233.555L300.566 231.719L295.789 227.536C295.304 227.113 294.588 227.817 295.081 228.239H295.07V228.236Z" fill="#13161D"/>
<path d="M335.486 99.1566C335.486 99.1566 316.054 96.8979 316.706 129.167C317.358 161.436 304.793 202.134 281.01 232.771L301.519 251.793C301.519 251.793 343.399 227.627 348.558 175.449C352.771 132.717 343.204 114.644 335.486 99.1566Z" fill="#FACB55"/>
<path d="M285.775 223.152C292.526 230.579 299.233 238.044 305.898 245.549C307.787 247.688 309.679 249.83 311.568 251.973C312.021 252.486 312.769 251.737 312.323 251.227C305.682 243.698 298.999 236.208 292.274 228.76C290.357 226.649 288.437 224.531 286.512 222.406C286.052 221.899 285.301 222.649 285.761 223.152H285.775Z" fill="white"/>
<path d="M288.472 239.388C290.563 237.429 292.71 235.532 294.914 233.699C295.438 233.263 294.684 232.517 294.163 232.954C291.959 234.787 289.811 236.683 287.721 238.642C287.221 239.107 287.976 239.853 288.472 239.388Z" fill="white"/>
<path d="M295.169 246.731C297.699 245.218 300.19 243.642 302.642 242.002C303.209 241.622 302.678 240.708 302.107 241.091C299.655 242.734 297.164 244.31 294.63 245.82C294.51 245.89 294.421 246.006 294.386 246.143C294.351 246.28 294.372 246.425 294.443 246.544C294.514 246.664 294.63 246.752 294.769 246.787C294.907 246.822 295.049 246.801 295.173 246.731H295.169Z" fill="white"/>
<path d="M328.725 111.432C328.37 112.596 329.564 113.613 330.67 113.592C331.9 113.567 332.764 112.491 333.317 111.52C333.381 111.4 333.398 111.259 333.359 111.126C333.32 110.995 333.235 110.883 333.115 110.812C332.994 110.742 332.856 110.724 332.722 110.756C332.587 110.788 332.474 110.872 332.399 110.985C332.289 111.175 332.176 111.361 332.045 111.544L331.949 111.678C331.935 111.703 331.917 111.724 331.896 111.745C331.825 111.826 331.754 111.91 331.676 111.987C331.598 112.065 331.52 112.135 331.439 112.206C331.357 112.276 331.464 112.206 331.379 112.251C331.294 112.297 331.29 112.311 331.244 112.336L331.106 112.413C331.106 112.413 330.957 112.477 331.039 112.445L330.886 112.494C330.865 112.494 330.698 112.536 330.759 112.529C330.819 112.522 330.684 112.529 330.666 112.529H330.479L330.344 112.494L330.248 112.462L330.163 112.42L330.043 112.346L329.983 112.308C330.025 112.336 330.029 112.343 329.983 112.308C329.947 112.279 329.915 112.248 329.883 112.213C329.883 112.213 329.781 112.097 329.82 112.149C329.859 112.202 329.781 112.09 329.774 112.075C329.766 112.061 329.706 111.938 329.731 112.002C329.756 112.065 329.731 111.938 329.731 111.924C329.731 111.903 329.731 111.882 329.731 111.861C329.731 111.924 329.731 111.938 329.731 111.896C329.731 111.854 329.731 111.738 329.731 111.815C329.731 111.892 329.756 111.727 329.763 111.71C329.781 111.643 329.788 111.572 329.777 111.505C329.77 111.435 329.745 111.368 329.713 111.308C329.678 111.249 329.632 111.196 329.579 111.154C329.522 111.111 329.462 111.08 329.394 111.062C329.327 111.045 329.256 111.038 329.185 111.048C329.114 111.055 329.047 111.08 328.987 111.111C328.927 111.147 328.873 111.192 328.831 111.245C328.788 111.301 328.757 111.361 328.739 111.428H328.728L328.725 111.432Z" fill="white"/>
<path d="M323.361 149.963C323.201 150.589 323.24 151.247 323.478 151.852C323.712 152.454 324.13 152.971 324.668 153.326C325.232 153.675 325.894 153.826 326.553 153.749C327.212 153.675 327.825 153.379 328.293 152.915C328.846 152.398 329.179 151.69 329.229 150.937C329.229 150.797 329.172 150.663 329.073 150.565C328.974 150.466 328.839 150.41 328.697 150.41C328.555 150.41 328.424 150.47 328.325 150.568C328.226 150.667 328.169 150.797 328.166 150.937C328.095 151.993 326.897 152.946 325.855 152.697C325.334 152.559 324.888 152.225 324.612 151.764C324.335 151.303 324.254 150.755 324.385 150.234C324.413 150.1 324.392 149.963 324.321 149.847C324.25 149.731 324.137 149.646 324.006 149.611C323.875 149.576 323.733 149.59 323.616 149.653C323.495 149.717 323.403 149.826 323.361 149.952V149.959V149.963Z" fill="white"/>
<path d="M337.941 169.141C337.785 169.64 337.817 170.182 338.03 170.66C338.243 171.139 338.618 171.529 339.096 171.758C339.571 171.987 340.113 172.036 340.624 171.899C341.134 171.762 341.577 171.452 341.875 171.019C341.938 170.9 341.956 170.762 341.921 170.629C341.885 170.499 341.8 170.386 341.683 170.316C341.559 170.249 341.417 170.231 341.283 170.266C341.148 170.302 341.031 170.386 340.957 170.502C341.035 170.397 340.957 170.502 340.925 170.537C340.893 170.572 340.858 170.604 340.822 170.636C340.822 170.653 340.702 170.724 340.822 170.653L340.723 170.72C340.677 170.752 340.631 170.777 340.581 170.801C340.553 170.801 340.439 170.857 340.56 170.801C340.486 170.829 340.408 170.854 340.33 170.875C340.28 170.893 340.223 170.903 340.17 170.907H339.904C339.823 170.907 339.851 170.907 339.926 170.907H339.848C339.809 170.907 339.766 170.907 339.727 170.875L339.614 170.84C339.515 170.805 339.695 170.882 339.575 170.819L339.451 170.748C339.426 170.731 339.33 170.657 339.426 170.748C339.359 170.692 339.295 170.632 339.235 170.569C339.235 170.548 339.128 170.428 339.203 170.534C339.182 170.502 339.157 170.47 339.135 170.435C339.114 170.4 339.093 170.365 339.075 170.33L339.033 170.249C339.065 170.319 339.004 170.175 339.001 170.161C338.997 170.147 338.976 170.083 338.965 170.045C338.955 170.006 338.965 169.964 338.941 169.925C338.916 169.82 338.941 170.027 338.941 169.886C338.937 169.798 338.937 169.714 338.941 169.626C338.916 169.714 338.941 169.506 338.941 169.626C338.965 169.538 338.965 169.521 338.98 169.468C339.011 169.334 338.99 169.193 338.923 169.074C338.852 168.954 338.739 168.87 338.608 168.831C338.473 168.796 338.331 168.81 338.211 168.877C338.09 168.944 337.998 169.053 337.959 169.183L337.945 169.137L337.941 169.141Z" fill="white"/>
<path d="M325.621 202.366C325.848 203.422 326.142 204.551 326.978 205.286C327.336 205.603 327.783 205.807 328.261 205.867C328.736 205.93 329.221 205.849 329.65 205.638C329.88 205.526 330.079 205.36 330.235 205.156C330.387 204.952 330.494 204.716 330.536 204.467C330.568 204.333 330.55 204.196 330.483 204.073C330.419 203.953 330.309 203.862 330.182 203.816C330.047 203.781 329.905 203.795 329.781 203.862C329.657 203.928 329.569 204.037 329.526 204.168C329.519 204.224 329.508 204.28 329.494 204.333C329.487 204.361 329.48 204.386 329.469 204.41C329.498 204.344 329.498 204.347 329.469 204.41C329.441 204.477 329.43 204.477 329.409 204.512L329.356 204.572C329.335 204.593 329.2 204.699 329.31 204.621L329.211 204.688L329.062 204.766C329.182 204.706 329.019 204.766 328.991 204.787C328.963 204.808 328.91 204.811 328.867 204.818C328.825 204.826 328.654 204.854 328.793 204.84C328.69 204.847 328.584 204.847 328.481 204.84C328.456 204.84 328.265 204.815 328.399 204.84L328.226 204.804L328.098 204.766L328.013 204.738C328.053 204.754 328.053 204.754 328.013 204.738C327.602 204.495 327.287 204.125 327.117 203.682C327.063 203.57 327.028 203.478 326.971 203.33C326.915 203.183 326.886 203.07 326.851 202.94C326.769 202.658 326.706 202.373 326.642 202.085C326.603 201.955 326.511 201.842 326.39 201.779C326.27 201.712 326.128 201.698 325.993 201.733C325.859 201.772 325.745 201.856 325.678 201.976C325.607 202.095 325.586 202.236 325.621 202.366Z" fill="white"/>
<path d="M308.478 197.272C307.993 197.743 307.681 198.363 307.589 199.031C307.497 199.699 307.631 200.379 307.971 200.959C308.312 201.543 308.836 201.997 309.463 202.25C310.09 202.503 310.788 202.542 311.44 202.363C311.564 202.317 311.671 202.226 311.731 202.106C311.791 201.986 311.805 201.853 311.77 201.722C311.735 201.596 311.653 201.483 311.54 201.413C311.426 201.342 311.292 201.318 311.161 201.339C310.735 201.459 310.278 201.43 309.871 201.265C309.46 201.1 309.12 200.801 308.896 200.421C308.677 200.041 308.588 199.597 308.648 199.161C308.709 198.725 308.914 198.32 309.229 198.014C309.325 197.916 309.375 197.782 309.371 197.645C309.371 197.508 309.314 197.377 309.215 197.282C309.116 197.187 308.985 197.131 308.85 197.128C308.712 197.128 308.577 197.177 308.478 197.268V197.272Z" fill="white"/>
<path d="M309.35 223.475C309.233 224.102 309.332 224.749 309.626 225.315C309.924 225.882 310.402 226.332 310.987 226.596C311.571 226.86 312.227 226.923 312.851 226.776C313.474 226.628 314.03 226.276 314.431 225.776C314.527 225.674 314.58 225.541 314.58 225.403C314.58 225.266 314.527 225.133 314.431 225.031C314.332 224.932 314.197 224.879 314.055 224.879C313.914 224.879 313.779 224.936 313.68 225.031C313.432 225.372 313.074 225.622 312.666 225.734C312.266 225.857 311.837 225.833 311.451 225.671C311.093 225.502 310.799 225.228 310.608 224.886C310.505 224.714 310.434 224.527 310.398 224.33C310.374 224.246 310.367 224.158 310.367 224.07C310.363 224.01 310.363 223.954 310.367 223.894C310.367 223.873 310.367 223.708 310.367 223.775C310.398 223.641 310.377 223.497 310.31 223.377C310.239 223.257 310.129 223.166 309.995 223.124C309.86 223.088 309.718 223.103 309.598 223.169C309.477 223.236 309.385 223.345 309.343 223.475H309.35Z" fill="white"/>
<path d="M281.009 232.771C281.009 232.771 262.796 243.016 264.834 246.33C266.719 249.394 277.969 243.111 277.969 243.111C277.969 243.111 263.969 251.614 264.876 253.947C266.411 257.898 282.895 250.077 282.895 250.077C282.895 250.077 270.425 256.687 271.58 259.224C273.352 263.073 287.792 255.044 287.792 255.044C287.792 255.044 279.33 260.079 279.84 262.475C281.009 267.949 301.519 251.808 301.519 251.808L281.009 232.771Z" fill="#F9A45B"/>
<path d="M315.441 134.096C316.033 141.016 315.813 147.982 314.785 154.853C313.744 161.742 312.085 168.525 309.825 175.118C307.557 181.722 304.846 188.163 301.714 194.408C298.585 200.706 295.119 206.827 291.484 212.844C287.848 218.86 284.043 224.805 280.195 230.705L278.777 232.89C278.405 233.464 279.327 233.995 279.695 233.425C283.547 227.49 287.398 221.555 291.094 215.524C294.79 209.494 298.358 203.33 301.586 197.015C304.811 190.777 307.628 184.343 310.027 177.75C312.422 171.167 314.233 164.388 315.434 157.488C316.639 150.614 317.064 143.627 316.695 136.657C316.646 135.802 316.582 134.947 316.504 134.092C316.444 133.424 315.381 133.417 315.441 134.092V134.096Z" fill="white"/>
<path d="M307.365 183.118C309.034 182.767 310.696 183.308 312.177 184.058C313.751 184.853 315.239 185.817 316.745 186.746C317.33 187.097 317.865 186.186 317.28 185.834C315.639 184.835 314.02 183.748 312.277 182.932C310.643 182.169 308.882 181.704 307.082 182.098C306.416 182.246 306.699 183.263 307.365 183.118Z" fill="white"/>
<path d="M338.672 209.748C336.088 216.003 332.666 221.878 328.498 227.222C327.336 228.714 326.11 230.16 324.835 231.56C324.378 232.063 325.129 232.813 325.586 232.306C330.242 227.194 334.175 221.477 337.279 215.31C338.151 213.582 338.952 211.816 339.689 210.032C339.947 209.403 338.92 209.128 338.665 209.751H338.672V209.748Z" fill="white"/>
<path d="M267.265 111.657C265.848 117.198 264.601 122.778 263.46 128.379C262.244 134.328 261.142 140.302 260.161 146.293C259.137 152.443 258.212 158.607 257.379 164.782C256.561 170.833 255.827 176.895 255.179 182.971C254.566 188.716 254.034 194.472 253.588 200.231C253.535 200.899 253.481 201.568 253.435 202.24C253.386 202.915 254.449 202.912 254.498 202.24C254.913 196.561 255.416 190.89 256.004 185.226C256.628 179.181 257.337 173.148 258.13 167.125C258.938 160.985 259.838 154.86 260.827 148.749C261.805 142.726 262.886 136.72 264.065 130.732C265.189 125.103 266.415 119.474 267.8 113.891C267.96 113.24 268.126 112.589 268.289 111.938C268.452 111.287 267.435 110.999 267.265 111.657Z" fill="white"/>
<path d="M246.429 156.746C248.173 162.35 249.25 168.134 249.64 173.985C249.75 175.628 249.803 177.275 249.803 178.932C249.803 179.072 249.859 179.206 249.959 179.305C250.058 179.403 250.193 179.459 250.334 179.459C250.476 179.459 250.611 179.403 250.71 179.305C250.809 179.206 250.866 179.072 250.866 178.932C250.859 173.007 250.164 167.107 248.789 161.341C248.4 159.698 247.953 158.079 247.454 156.486C247.255 155.838 246.228 156.134 246.429 156.767V156.746Z" fill="white"/>
<path d="M93 102.935L133.168 65.6707H189.31C189.31 65.6707 205.287 137.818 200.266 182.475C200.266 182.475 173.79 212.168 153.706 214.434H99.3888L93 102.935Z" fill="#ED6524"/>
<path d="M195.607 60.5692C185.887 67.6127 176.536 75.1451 167.589 83.1349C163.1 87.1457 158.716 91.269 154.44 95.5084C152.314 97.6193 150.205 99.7654 148.111 101.947C147.073 103.03 146.02 104.11 145.011 105.222C144.816 105.377 144.692 105.602 144.656 105.845C144.656 106.359 144.699 106.872 144.777 107.382L145.053 110.932L145.992 122.894L147.3 139.567L148.795 158.667L150.301 177.859L151.647 195.049L152.654 207.901C152.817 209.987 152.966 212.077 153.143 214.159C153.143 214.251 153.143 214.339 153.164 214.43C153.217 215.102 154.28 215.109 154.227 214.43L154 211.531L153.384 203.637L152.466 191.963L151.35 177.714L150.12 162.027L148.887 146.269L147.735 131.577L146.761 119.158L146.052 110.225L145.833 107.446C145.829 106.957 145.79 106.471 145.719 105.989C145.712 105.929 145.712 105.866 145.719 105.806L145.563 106.179C157.501 93.3869 170.381 81.4954 184.105 70.6102C188.052 67.479 192.067 64.4357 196.153 61.4804C196.702 61.0829 196.153 60.1682 195.618 60.5692H195.607Z" fill="white"/>
<path d="M94.8391 104.877C101.27 105.099 107.702 105.275 114.133 105.447C121.004 105.63 127.871 105.817 134.741 106.003C138.228 106.102 141.711 106.211 145.194 106.33C145.878 106.355 145.878 105.3 145.194 105.275C138.763 105.05 132.332 104.877 125.901 104.705C119.03 104.519 112.159 104.353 105.289 104.149C101.805 104.047 98.3222 103.938 94.8391 103.822C94.1552 103.797 94.1552 104.853 94.8391 104.877Z" fill="white"/>
<path d="M152.005 179.98C159.776 175.881 167.391 171.512 174.853 166.875C182.316 162.238 189.58 157.362 196.642 152.246C200.628 149.358 204.558 146.392 208.43 143.342C208.966 142.919 208.207 142.177 207.679 142.596C200.816 147.989 193.768 153.136 186.529 158.03C179.29 162.924 171.902 167.557 164.358 171.931C160.106 174.39 155.811 176.768 151.47 179.058C150.868 179.375 151.403 180.286 152.005 179.97V179.98Z" fill="white"/>
<path d="M163.198 182.432C172.205 178.267 180.703 173.092 188.523 167.002C190.745 165.271 192.906 163.469 195.011 161.601C195.521 161.147 194.77 160.401 194.26 160.855C186.889 167.413 178.782 173.106 170.097 177.82C167.663 179.139 165.189 180.381 162.677 181.539C162.057 181.824 162.596 182.735 163.212 182.45L163.198 182.432Z" fill="#13161D"/>
<path d="M165.03 190.725C173.492 186.795 181.525 182.024 189.012 176.48C191.138 174.91 193.211 173.282 195.227 171.593C195.751 171.157 194.997 170.414 194.476 170.847C187.347 176.768 179.629 181.957 171.444 186.327C169.158 187.551 166.837 188.709 164.481 189.799C163.861 190.088 164.399 190.999 165.016 190.711L165.03 190.725Z" fill="#13161D"/>
<path d="M166.465 198.49C175.186 195.598 182.68 190.176 189.955 184.747C191.964 183.245 194.037 181.782 195.557 179.766C195.968 179.22 195.047 178.71 194.639 179.231C193.314 180.99 191.482 182.295 189.731 183.601C187.981 184.906 186.188 186.25 184.374 187.537C180.788 190.162 177.007 192.516 173.067 194.574C170.849 195.71 168.549 196.678 166.182 197.469C165.537 197.684 165.828 198.704 166.465 198.486V198.49Z" fill="#13161D"/>
<path d="M161.905 124.407C160.676 118.391 159.74 112.325 159.099 106.207L158.709 106.717C159.294 106.619 159.893 106.636 160.467 106.77C161.044 106.904 161.59 107.15 162.068 107.491C162.55 107.836 162.958 108.269 163.266 108.772C163.574 109.275 163.783 109.831 163.872 110.411C164.272 113.05 162.185 114.932 160.35 116.473C159.829 116.913 160.584 117.655 161.101 117.219C162.246 116.259 163.401 115.252 164.17 113.954C164.907 112.726 165.151 111.266 164.846 109.866C164.524 108.483 163.677 107.277 162.479 106.499C161.282 105.722 159.829 105.433 158.422 105.697C158.309 105.729 158.21 105.795 158.139 105.887C158.068 105.978 158.029 106.091 158.032 106.207C158.681 112.41 159.623 118.57 160.867 124.688C161.002 125.353 162.026 125.072 161.891 124.407H161.902H161.905Z" fill="white"/>
<path d="M169.523 96.4864C167.199 97.5032 166.551 100.691 166.334 102.932C166.104 105.581 166.586 108.241 167.734 110.644C168.017 111.235 168.34 111.808 168.705 112.353C169.038 112.853 169.414 113.434 169.956 113.715C171.15 114.32 172.404 113.409 173.042 112.434C173.751 111.354 173.942 110.024 173.985 108.765C174.02 107.505 173.978 106.242 173.861 104.986C173.634 102.383 172.992 99.5789 170.831 97.8691C170.303 97.4504 169.545 98.1927 170.08 98.6149C171.724 99.9167 172.387 101.904 172.677 103.892C172.815 104.951 172.893 106.017 172.911 107.087C172.992 108.195 172.932 109.307 172.73 110.397C172.521 111.302 171.94 112.765 170.824 112.835C170.324 112.871 170.034 112.399 169.782 112.04C169.431 111.541 169.116 111.017 168.84 110.475C167.791 108.417 167.277 106.133 167.344 103.829C167.376 102.562 167.589 101.31 167.982 100.107C168.336 98.9949 168.921 97.8796 170.048 97.3836C170.675 97.1127 170.133 96.2015 169.513 96.4724L169.523 96.4864Z" fill="white"/>
<path d="M178.145 90.4071C177.953 90.1467 177.684 89.9532 177.376 89.8547C177.068 89.7562 176.735 89.7597 176.426 89.8617C175.718 90.0904 175.31 90.7342 175.066 91.3851C174.467 92.9683 174.662 94.7485 175.136 96.3352C176.047 99.3644 178.326 102.175 178.138 105.461C178.06 106.9 177.465 108.374 176.175 109.141C176.054 109.212 175.966 109.328 175.93 109.465C175.895 109.602 175.916 109.743 175.987 109.866C176.058 109.986 176.175 110.074 176.313 110.109C176.448 110.144 176.593 110.123 176.717 110.053C178.935 108.733 179.52 105.922 179.063 103.551C178.467 100.451 176.373 97.8621 175.856 94.7555C175.696 93.876 175.728 92.9718 175.955 92.1063C176.033 91.7404 176.196 91.3992 176.43 91.1072C176.589 90.9348 177.029 90.6885 177.231 90.9524C177.638 91.4836 178.563 90.9524 178.148 90.4176V90.4035L178.145 90.4071Z" fill="white"/>
<path d="M178.294 87.0858C180.781 85.573 183.045 83.7295 185.026 81.6045C185.49 81.1084 184.743 80.3591 184.275 80.8586C182.362 82.9203 180.168 84.7075 177.762 86.1746C177.181 86.5265 177.716 87.4412 178.301 87.0858H178.294Z" fill="white"/>
<path d="M180.508 84.9011C181.717 90.8574 182.78 96.8384 183.697 102.844C183.8 103.512 184.824 103.227 184.721 102.562C183.804 96.5569 182.741 90.576 181.532 84.6197C181.398 83.9547 180.374 84.2362 180.508 84.9011Z" fill="white"/>
<path d="M187.775 109.602L160.611 131.38L161.511 140.049L188.739 118.159L187.775 109.602Z" fill="#13161D"/>
<path d="M220.612 105.162L208.079 127.017L165.59 136.77L188.3 114.264L220.612 105.162Z" fill="#F2ECE5"/>
<path d="M184.059 116.906C185.104 117.895 186.185 118.852 187.301 119.763C187.875 120.231 188.456 120.688 189.044 121.131C189.565 121.525 190.107 122.039 190.749 122.233C191.39 122.426 192.021 122.145 192.588 121.839C193.24 121.487 193.888 121.135 194.54 120.783C195.862 120.062 197.18 119.334 198.495 118.598C203.707 115.685 208.855 112.667 213.944 109.546C216.803 107.794 219.638 106.01 222.448 104.191C223.018 103.84 222.487 102.911 221.913 103.28C217.087 106.39 212.204 109.405 207.261 112.329C202.318 115.253 197.325 118.085 192.279 120.825C191.975 121.043 191.624 121.195 191.255 121.265C190.901 121.265 190.579 120.98 190.313 120.783C189.679 120.315 189.055 119.837 188.442 119.348C187.188 118.342 185.976 117.286 184.81 116.181C184.317 115.713 183.563 116.456 184.059 116.927V116.906Z" fill="#13161D"/>
<path d="M236.427 127.879L228.929 107.618C228.929 107.618 210.432 101.014 208.352 103.491C206.272 105.968 216.665 112.382 216.665 112.382L208.08 127.017L210.103 140.784L236.427 127.879Z" fill="#F9A45B"/>
<path d="M216.584 111.988C215.623 114.383 215.297 116.98 215.638 119.538C215.978 122.092 216.974 124.519 218.529 126.581C218.94 127.112 219.865 126.581 219.447 126.05C217.969 124.104 217.023 121.814 216.701 119.4C216.378 116.987 216.694 114.528 217.611 112.269C217.87 111.639 216.842 111.368 216.584 111.988Z" fill="#13161D"/>
<path d="M283.408 258.074C285.368 257.095 287.21 255.903 288.904 254.517C289.003 254.418 289.057 254.284 289.057 254.144C289.057 254.003 289.003 253.869 288.904 253.771C288.801 253.676 288.667 253.623 288.529 253.623C288.39 253.623 288.256 253.676 288.153 253.771C286.523 255.09 284.751 256.223 282.87 257.152C282.257 257.454 282.795 258.366 283.408 258.063V258.074Z" fill="#13161D"/>
<path d="M277.795 253.271C279.581 251.938 281.566 250.889 283.674 250.161C284.319 249.94 284.028 248.919 283.394 249.141C281.186 249.894 279.114 250.977 277.243 252.36C277.129 252.434 277.048 252.547 277.012 252.677C276.977 252.807 276.995 252.944 277.055 253.064C277.126 253.18 277.239 253.264 277.37 253.299C277.501 253.335 277.643 253.317 277.763 253.254L277.795 253.271Z" fill="#13161D"/>
<path d="M274.2 245.964C276.092 244.894 278.065 243.973 280.103 243.216C280.241 243.178 280.358 243.086 280.429 242.963C280.5 242.84 280.521 242.692 280.486 242.555C280.443 242.425 280.351 242.312 280.23 242.249C280.11 242.182 279.965 242.168 279.83 242.203C277.704 242.991 275.645 243.945 273.675 245.06C273.558 245.134 273.477 245.246 273.441 245.38C273.409 245.514 273.431 245.654 273.498 245.77C273.569 245.89 273.679 245.975 273.813 246.013C273.944 246.048 274.086 246.034 274.21 245.971L274.2 245.964Z" fill="#13161D"/>
<path d="M178.176 47.1474L181.277 43.9318L178.176 40.7513L181.277 37.6729L178.176 34.4573L181.277 30.9567L178.176 27.6672L181.277 24.4515L178.176 21.3028L181.277 18.1223L178.176 14.3016L179.987 9.35146L175.154 9.95659L171.915 6.87817L168.708 9.95659L165.611 6.87817L162.373 9.95659L158.847 6.87817L155.534 9.95659L152.295 6.87817L149.124 9.95659L145.917 6.87817L142.073 9.95659L138.589 9.28462L138.958 13.0702L135.857 16.2893L138.958 19.4698L135.857 22.5482L138.958 25.7638L135.857 29.2644L138.958 32.5504L135.857 35.7696L138.958 38.9184L135.857 42.0988L138.958 45.9196L137.147 50.8661L141.98 50.2645L145.219 53.3429L148.426 50.2645L151.523 53.3429L154.761 50.2645L158.287 53.3429L161.6 50.2645L164.839 53.3429L168.01 50.2645L171.217 53.3429L175.062 50.2645L178.938 51.0139L178.176 47.1474Z" fill="#ED6524"/>
<path d="M175.144 13.1157H141.995V47.105H175.144V13.1157Z" fill="white"/>
<path d="M159.067 45.6379C160.3 45.0645 161.384 44.2236 162.245 43.1787C163.103 42.1303 163.712 40.906 164.028 39.5902C164.194 38.8619 164.307 38.0562 163.974 37.3526C163.84 37.0535 163.624 36.8002 163.347 36.6243C163.071 36.4449 162.752 36.3464 162.422 36.3429C162.1 36.3745 161.795 36.5012 161.547 36.7052C161.299 36.9093 161.118 37.1872 161.033 37.4968C160.796 38.2005 161.033 38.9885 161.317 39.6605C161.763 40.7828 162.44 41.972 163.638 42.4258C164.984 42.9324 166.472 42.1831 167.518 41.3387C168.524 40.5014 169.251 39.3826 169.605 38.1266C169.856 37.2295 170.25 34.8969 168.804 34.7667C168.063 34.6999 167.635 35.4317 167.557 36.072C167.493 36.7756 167.617 37.4828 167.911 38.1231C168.198 38.788 168.645 39.3755 169.208 39.8364C169.771 40.2938 170.438 40.614 171.153 40.7617C171.819 40.8884 172.106 39.8716 171.437 39.745C170.547 39.5796 169.764 39.073 169.247 38.3377C168.988 37.9753 168.797 37.5637 168.691 37.1309C168.641 36.941 168.613 36.7439 168.606 36.5469C168.616 36.3288 168.645 36.1107 168.694 35.8996C168.73 35.6322 168.772 35.9664 168.676 35.8151C168.708 35.8785 168.733 35.9418 168.744 36.0122C168.779 36.2514 168.786 36.4941 168.765 36.7369C168.744 37.1943 168.655 37.6481 168.51 38.0844C168.212 38.9639 167.698 39.752 167.011 40.3817C166.338 40.9974 165.271 41.6659 164.315 41.5181C163.443 41.3809 162.897 40.5401 162.543 39.8118C162.341 39.4107 162.181 38.9885 162.068 38.5523C161.99 38.2005 161.951 37.3385 162.536 37.3948C163.05 37.4441 163.149 38.1196 163.131 38.5136C163.092 39.0413 162.979 39.5655 162.794 40.0616C162.44 41.0854 161.884 42.0247 161.15 42.8269C160.42 43.629 159.531 44.2729 158.542 44.7232C157.922 45.0082 158.461 45.9159 159.081 45.6344H159.067V45.6379Z" fill="#13161D"/>
<path d="M227.384 7.6943L253.166 0.119629L245.359 24.4057L242.092 11.4799L227.384 7.6943Z" fill="#13161D"/>
<path d="M252.649 0.151404C248.889 3.81384 245.09 7.43758 241.253 11.0156C240.753 11.4835 241.508 12.2294 242.004 11.7614C245.842 8.17992 249.64 4.5597 253.4 0.900779C253.892 0.422305 253.138 -0.323552 252.649 0.151404Z" fill="#FACB55"/>
<path d="M236.749 15.7616C235.583 17.5805 234.131 19.2024 232.44 20.5569C232.341 20.6554 232.288 20.7891 232.288 20.9298C232.288 21.0706 232.345 21.2043 232.44 21.3028C232.543 21.3978 232.678 21.4505 232.816 21.4505C232.954 21.4505 233.089 21.3978 233.192 21.3028C234.949 19.8849 236.459 18.1892 237.667 16.2858C238.021 15.7088 237.114 15.1811 236.749 15.7546V15.7616Z" fill="#FACB55"/>
<path d="M227.454 25.5702L223.868 29.1236C223.773 29.2221 223.716 29.3558 223.716 29.4965C223.716 29.6373 223.769 29.7674 223.868 29.8695C223.967 29.968 224.102 30.0208 224.244 30.0208C224.386 30.0208 224.52 29.9645 224.619 29.8695L228.205 26.3161C228.258 26.2668 228.301 26.2106 228.329 26.1437C228.358 26.0804 228.375 26.01 228.375 25.9397C228.375 25.8693 228.365 25.7989 228.336 25.7321C228.308 25.6652 228.269 25.6054 228.219 25.5562C228.17 25.5069 228.11 25.4647 228.042 25.4401C227.975 25.4119 227.904 25.4014 227.833 25.4014C227.762 25.4014 227.692 25.419 227.628 25.4471C227.564 25.4753 227.504 25.5175 227.454 25.5702Z" fill="#FACB55"/>
<path d="M220.162 33.1344C219.081 34.693 217.703 36.0264 216.101 37.0572C214.5 38.088 212.714 38.7952 210.84 39.1365C207.785 39.6818 203.43 38.8656 202.69 35.3227C202.353 33.7114 202.97 31.9453 204.029 30.7174C205.089 29.4896 207.371 28.0929 208.876 29.5107C210.294 30.8476 210.269 33.2611 209.939 35.0237C209.504 37.1311 208.717 39.1541 207.615 41.0046C205.411 44.8993 202.24 48.1712 198.402 50.5037C197.817 50.8556 198.353 51.7703 198.941 51.415C202.775 49.0859 205.974 45.8597 208.256 42.0179C209.518 39.9984 210.425 37.782 210.942 35.4635C211.35 33.3772 211.364 30.8511 209.947 29.1096C208.441 27.2626 205.943 27.7481 204.249 29.0568C203.49 29.6444 202.863 30.3797 202.399 31.217C201.938 32.0543 201.651 32.9761 201.559 33.926C201.478 34.8548 201.641 35.7907 202.027 36.6421C202.413 37.4935 203.012 38.2323 203.767 38.7917C205.28 39.9316 207.264 40.3608 209.135 40.3362C213.883 40.2799 218.451 37.4899 221.08 33.6516C221.466 33.0887 220.548 32.561 220.162 33.1204V33.1344Z" fill="#FACB55"/>
<path d="M195.652 53.1774L193.15 54.9611C193.03 55.035 192.945 55.1511 192.909 55.2848C192.874 55.4185 192.892 55.5627 192.959 55.6859C193.03 55.8055 193.147 55.8899 193.285 55.9251C193.42 55.9603 193.565 55.9392 193.685 55.8723L196.187 54.0886C196.251 54.0534 196.304 54.0077 196.35 53.9549C196.396 53.8986 196.428 53.8353 196.446 53.7685C196.467 53.7016 196.471 53.6277 196.463 53.5574C196.456 53.487 196.432 53.4202 196.396 53.3568C196.361 53.297 196.311 53.2407 196.254 53.1985C196.198 53.1563 196.13 53.1246 196.063 53.107C195.992 53.0894 195.921 53.0859 195.85 53.1C195.78 53.1105 195.712 53.1387 195.652 53.1739V53.1774Z" fill="#FACB55"/>
<path d="M185.199 236.053C185.199 236.053 222.295 209.484 227.334 264.568C227.334 264.568 199.341 275.664 185.199 236.053Z" fill="#F5CDB4"/>
<path d="M175.738 216.84C175.738 216.84 195.255 180.371 221.664 209.062C221.664 209.062 199.724 233.407 175.738 216.84Z" fill="#F5CDB4"/>
<path d="M154.61 229.653C154.61 229.653 120.302 202.563 103.723 240.303C103.723 240.303 132.881 259.875 154.61 229.653Z" fill="#F5CDB4"/>
<path d="M171.21 205.311C171.21 205.311 164.902 177.349 137.742 195.889C137.742 195.889 151.048 218.156 171.21 205.311Z" fill="#F5CDB4"/>
<path d="M148.89 197.779C154.205 198.176 159.63 199.432 164.442 201.74C166.522 202.736 168.549 204.041 169.924 205.92C171.341 207.858 171.983 210.23 172.277 212.58C172.56 215.19 172.67 217.815 172.603 220.439C172.571 223.208 172.411 225.977 172.149 228.732C171.582 234.273 170.693 239.779 169.488 245.222C168.159 251.403 166.554 257.535 164.942 263.639C164.914 263.773 164.935 263.91 165.006 264.026C165.077 264.142 165.19 264.227 165.321 264.262C165.452 264.297 165.594 264.283 165.714 264.22C165.835 264.156 165.927 264.047 165.966 263.921C167.433 258.359 168.893 252.789 170.147 247.174C171.43 241.587 172.401 235.937 173.056 230.245C173.662 224.7 173.96 219.015 173.435 213.452C173.205 210.99 172.727 208.527 171.472 206.353C170.275 204.266 168.397 202.694 166.317 201.515C164.038 200.284 161.632 199.309 159.138 198.606C156.466 197.803 153.727 197.237 150.956 196.913C150.269 196.832 149.581 196.769 148.89 196.716C148.199 196.663 148.21 197.722 148.89 197.772V197.782V197.779Z" fill="#F9AF3D"/>
<path d="M173.215 222.522C174.417 218.3 178.229 215.486 182.226 214.079C184.561 213.301 186.971 212.763 189.419 212.474C192.052 212.122 194.696 211.866 197.346 211.714C200.351 211.542 203.359 211.5 206.371 211.595C207.055 211.616 207.055 210.56 206.371 210.539C200.765 210.37 195.156 210.659 189.597 211.394C184.81 212.031 179.859 213.115 176.114 216.341C174.264 217.892 172.911 219.943 172.216 222.244C172.188 222.378 172.209 222.515 172.28 222.631C172.351 222.747 172.464 222.832 172.595 222.867C172.727 222.902 172.868 222.888 172.989 222.821C173.109 222.754 173.201 222.649 173.24 222.522H173.215Z" fill="#F9AF3D"/>
<path d="M165.53 262.359C168.251 253.704 172.284 244.768 180.281 239.716C184.005 237.369 188.364 236.057 192.793 236.475C195.288 236.767 197.733 237.401 200.05 238.365C202.162 239.195 204.203 240.194 206.152 241.351C210.471 243.92 214.298 247.223 217.459 251.114C217.887 251.646 218.639 250.893 218.21 250.369C215.301 246.787 211.832 243.691 207.934 241.2C205.989 239.955 203.944 238.868 201.822 237.949C199.504 236.908 197.073 236.138 194.579 235.659C189.99 234.892 185.277 235.701 181.217 237.953C177.138 240.145 173.8 243.445 171.221 247.244C168.152 251.762 166.147 256.902 164.52 262.077C164.315 262.728 165.342 263.006 165.544 262.359H165.53Z" fill="#F9AF3D"/>
<path d="M115.773 236.782C120.546 234.762 125.436 233.024 130.415 231.575C135.375 230.129 140.538 228.697 145.75 228.802C150.098 228.887 154.63 230.21 157.727 233.376C160.824 236.542 162.008 240.901 162.819 245.074C163.918 250.805 164.584 256.607 164.81 262.436C164.839 263.112 165.902 263.115 165.873 262.436C165.643 257.015 165.051 251.614 164.102 246.27C163.329 241.904 162.28 237.351 159.474 233.784C156.668 230.217 152.221 228.341 147.731 227.866C142.494 227.311 137.236 228.57 132.225 229.956C126.428 231.546 120.748 233.524 115.217 235.867C114.59 236.134 115.128 237.042 115.752 236.778H115.773V236.782Z" fill="#F9AF3D"/>
<path d="M218.189 82.3186C223.826 83.0856 228.95 85.9846 232.49 90.4105C233.485 91.6524 234.332 93.0034 235.016 94.4388C235.31 95.0545 236.228 94.5197 235.934 93.9076C233.301 88.5634 228.681 84.4401 223.047 82.4101C221.477 81.8472 219.847 81.4637 218.189 81.2597C217.512 81.1752 217.519 82.2342 218.189 82.3151V82.3186Z" fill="#13161D"/>
<path d="M226.753 78.1215C228.868 78.5225 230.838 79.4725 232.464 80.8762C234.087 82.28 235.31 84.0848 236.001 86.1113C236.213 86.7551 237.241 86.4807 237.025 85.8298C236.284 83.631 234.97 81.6643 233.216 80.1303C231.462 78.5999 229.329 77.555 227.036 77.1082C226.366 76.9851 226.083 78.0018 226.753 78.125V78.1215Z" fill="#13161D"/>
<path d="M336.521 86.3787C341.368 89.4888 345.004 94.1468 346.828 99.5824C347.339 101.106 347.697 102.678 347.891 104.276C347.973 104.941 349.04 104.951 348.954 104.276C348.203 98.3159 345.425 92.7923 341.077 88.6162C339.844 87.4376 338.494 86.3822 337.052 85.4675C336.475 85.1156 335.94 86.0128 336.514 86.3787H336.521Z" fill="#13161D"/>
<path d="M341.018 81.5411C343.346 82.1884 345.482 83.3741 347.258 85.0065C349.029 86.6389 350.386 88.6654 351.212 90.9206C351.439 91.5574 352.466 91.2724 352.236 90.6391C351.357 88.2081 349.908 86.0233 348.005 84.2606C346.102 82.498 343.806 81.2174 341.301 80.5173C341.17 80.4927 341.032 80.5173 340.918 80.5912C340.805 80.6615 340.724 80.7706 340.688 80.9008C340.653 81.0274 340.667 81.1646 340.727 81.2843C340.787 81.4039 340.89 81.4954 341.018 81.5411Z" fill="#13161D"/>
<path d="M341.609 75.9086C344.217 75.8523 346.811 76.3273 349.228 77.2983C349.362 77.337 349.504 77.3194 349.628 77.2561C349.752 77.1892 349.841 77.0802 349.883 76.9465C349.919 76.8093 349.901 76.6685 349.83 76.5454C349.759 76.4223 349.646 76.3343 349.511 76.2956C347.002 75.2929 344.313 74.8074 341.609 74.8672C340.929 74.8672 340.925 75.9227 341.609 75.9227V75.9086Z" fill="#13161D"/>
</g>
<defs>
<clipPath id="clip0_2139_2354">
<rect width="266" height="266" fill="white" transform="translate(93)"/>
</clipPath>
</defs>
</svg>
