<svg width="266" height="266" viewBox="0 0 266 266" fill="none" xmlns="http://www.w3.org/2000/svg">
<g clip-path="url(#clip0_979_2612)">
<path d="M256.316 146.508C260.522 160.75 263.757 175.255 266 189.926L254.778 189.856L248.368 150.206L256.316 146.508Z" fill="#F9AF3D"/>
<path d="M166.636 232.771V262.876H246.185L248.368 232.771H166.636Z" fill="#13161D"/>
<path d="M30.3174 209.058V263.593H73.8162V205.311L30.3174 209.058Z" fill="#13161D"/>
<path d="M169.315 93.5559C169.315 93.5559 157.721 113.033 153.823 156.598L143.42 127.879L117.096 140.784C117.096 140.784 127.698 219.497 160.098 207.894C192.499 196.291 202.673 73.4318 169.315 93.5559Z" fill="#FACB55"/>
<path d="M115.887 152.587L145.035 137.568L153.341 133.287C153.951 132.973 153.412 132.062 152.806 132.375L123.658 147.395L115.352 151.676C114.746 151.989 115.282 152.9 115.887 152.587Z" fill="white"/>
<path d="M125.182 135.204C125.727 139.081 126.751 142.877 128.233 146.508C128.488 147.131 129.515 146.86 129.26 146.23C127.779 142.596 126.751 138.793 126.206 134.909C126.114 134.24 125.09 134.525 125.182 135.19V135.204Z" fill="white"/>
<path d="M134.983 131.38C136.064 134.757 137.215 138.114 138.441 141.445C138.675 142.079 139.703 141.797 139.469 141.168C138.243 137.836 137.088 134.479 136.007 131.098C135.802 130.455 134.774 130.729 134.983 131.38Z" fill="white"/>
<path d="M127.885 158.794C127.772 159.188 127.783 159.606 127.907 159.993C128.034 160.384 128.272 160.725 128.594 160.982C128.934 161.256 129.356 161.408 129.795 161.411C130.206 161.408 130.607 161.284 130.947 161.059C131.351 160.792 131.649 160.391 131.787 159.926C131.815 159.793 131.794 159.656 131.723 159.539C131.652 159.423 131.539 159.339 131.408 159.304C131.276 159.269 131.135 159.283 131.018 159.346C130.901 159.409 130.805 159.518 130.763 159.645C130.756 159.694 130.738 159.744 130.717 159.786C130.745 159.719 130.749 159.708 130.717 159.761L130.692 159.814L130.621 159.923C130.607 159.944 130.593 159.965 130.578 159.986C130.621 159.933 130.628 159.919 130.603 159.951C130.578 159.983 130.483 160.12 130.401 160.148L130.451 160.109L130.387 160.155L130.26 160.233C130.231 160.233 130.185 160.285 130.157 160.282C130.228 160.254 130.235 160.254 130.178 160.282L130.107 160.306C130.026 160.342 129.941 160.359 129.852 160.366C129.887 160.366 129.983 160.366 129.852 160.366H129.629H129.696C129.696 160.366 129.569 160.335 129.547 160.331C129.526 160.328 129.398 160.268 129.469 160.306C129.54 160.345 129.413 160.271 129.398 160.264C129.363 160.24 129.328 160.215 129.289 160.194C129.257 160.173 129.267 160.194 129.321 160.222C129.299 160.208 129.282 160.19 129.264 160.173C129.193 160.12 129.129 160.057 129.083 159.983C129.15 160.109 129.083 159.983 129.055 159.937C129.026 159.891 129.016 159.874 128.998 159.839L128.966 159.772C128.941 159.719 128.945 159.726 128.966 159.796C128.948 159.761 128.934 159.726 128.927 159.687C128.927 159.641 128.899 159.592 128.888 159.543C128.888 159.518 128.888 159.494 128.888 159.469V159.536C128.849 159.487 128.888 159.335 128.888 159.276C128.888 159.216 128.888 159.226 128.888 159.304C128.888 159.279 128.888 159.254 128.888 159.23C128.888 159.181 128.913 159.135 128.927 159.086C128.966 158.952 128.948 158.811 128.881 158.692C128.814 158.572 128.704 158.48 128.573 158.438C128.438 158.403 128.296 158.421 128.176 158.484C128.056 158.551 127.963 158.66 127.917 158.79H127.885V158.794Z" fill="white"/>
<path d="M142.884 164.451C142.271 165.534 143.062 166.78 144.132 167.174C144.394 167.265 144.677 167.297 144.954 167.269C145.23 167.241 145.499 167.149 145.74 167.005C146.233 166.702 146.605 166.245 146.803 165.707C147.016 165.144 147.034 164.525 146.857 163.948C146.814 163.821 146.722 163.712 146.601 163.649C146.481 163.585 146.343 163.568 146.212 163.603C146.081 163.638 145.967 163.722 145.896 163.839C145.825 163.955 145.804 164.092 145.832 164.226C145.864 164.321 145.886 164.419 145.903 164.521C145.925 164.616 145.903 164.412 145.903 164.549V164.718C145.907 164.813 145.907 164.908 145.903 165.003C145.903 165.077 145.928 164.905 145.903 164.975C145.903 164.993 145.903 165.014 145.903 165.031C145.903 165.087 145.879 165.14 145.864 165.197C145.847 165.292 145.818 165.38 145.772 165.464C145.847 165.355 145.772 165.464 145.747 165.51C145.723 165.555 145.694 165.608 145.666 165.657C145.638 165.707 145.62 165.728 145.595 165.763C145.584 165.784 145.57 165.805 145.553 165.823C145.638 165.745 145.588 165.781 145.553 165.802C145.485 165.876 145.418 165.942 145.343 166.009C145.273 166.076 145.361 166.009 145.368 166.009C145.351 166.023 145.329 166.041 145.308 166.051C145.269 166.08 145.227 166.104 145.184 166.129C145.142 166.154 145.106 166.164 145.071 166.185C145.035 166.206 145.163 166.161 145.095 166.185L145.007 166.217L144.862 166.252C144.769 166.277 144.971 166.252 144.837 166.252H144.638C144.525 166.227 144.426 166.224 144.376 166.171C144.422 166.217 144.451 166.21 144.401 166.171L144.334 166.136C144.284 166.111 144.238 166.083 144.192 166.051L144.132 166.009L144.167 166.034C144.135 166.034 144.078 165.96 144.054 165.935C144.018 165.904 143.986 165.869 143.954 165.83L143.919 165.788C143.873 165.745 143.976 165.872 143.919 165.788C143.862 165.703 143.859 165.7 143.834 165.65C143.82 165.629 143.809 165.608 143.799 165.587C143.752 165.503 143.774 165.587 143.799 165.587C143.823 165.587 143.756 165.464 143.749 165.439L143.731 165.369C143.71 165.288 143.76 165.348 143.731 165.39V165.186C143.731 165.077 143.71 165.267 143.731 165.207C143.752 165.147 143.756 165.105 143.77 165.056C143.799 164.954 143.77 165.084 143.77 165.08C143.77 165.077 143.813 165 143.82 164.985C143.855 164.926 143.877 164.859 143.887 164.792C143.898 164.722 143.894 164.655 143.877 164.584C143.859 164.518 143.827 164.454 143.784 164.398C143.742 164.342 143.689 164.296 143.628 164.261C143.568 164.226 143.501 164.201 143.434 164.194C143.363 164.183 143.295 164.19 143.225 164.208C143.157 164.226 143.093 164.257 143.037 164.299C142.98 164.342 142.934 164.394 142.899 164.454H142.881L142.884 164.451Z" fill="white"/>
<path d="M140.178 189.479L141.91 191.059C142.148 191.309 142.428 191.52 142.736 191.682C142.899 191.752 143.076 191.784 143.253 191.777C143.43 191.77 143.604 191.727 143.764 191.646C144.352 191.354 144.653 190.718 144.947 190.169L146.067 188.093C146.389 187.491 145.471 186.96 145.149 187.558L144.214 189.293C144.065 189.571 143.919 189.856 143.76 190.13C143.668 190.327 143.533 190.507 143.37 190.654C143.324 190.693 143.271 190.718 143.211 190.728C143.151 190.711 143.094 190.682 143.041 190.647C142.817 190.471 142.608 190.281 142.41 190.081L140.929 188.726C140.426 188.265 139.671 189.011 140.178 189.472V189.479Z" fill="white"/>
<path d="M162.603 127.531C162.455 127.767 162.355 128.027 162.309 128.298C162.263 128.572 162.274 128.85 162.341 129.118C162.409 129.385 162.525 129.638 162.692 129.86C162.859 130.082 163.068 130.268 163.309 130.409C163.369 130.444 163.436 130.465 163.503 130.476C163.574 130.486 163.642 130.483 163.713 130.465C163.78 130.447 163.844 130.416 163.9 130.374C163.957 130.331 164.003 130.279 164.039 130.219C164.074 130.159 164.099 130.092 164.106 130.025C164.116 129.955 164.113 129.888 164.095 129.821C164.077 129.754 164.046 129.691 164.003 129.635C163.961 129.578 163.907 129.533 163.847 129.498L163.716 129.42C163.645 129.371 163.716 129.42 163.748 129.445C163.78 129.469 163.705 129.41 163.688 129.392L163.592 129.297C163.578 129.276 163.56 129.255 163.539 129.237C163.564 129.255 163.613 129.339 163.567 129.269C163.514 129.188 163.468 129.107 163.425 129.023C163.379 128.931 163.468 129.146 163.425 129.047L163.404 128.984C163.387 128.938 163.372 128.889 163.362 128.84C163.362 128.794 163.362 128.752 163.337 128.706C163.376 128.885 163.337 128.724 163.337 128.671C163.333 128.622 163.333 128.572 163.337 128.523V128.456C163.337 128.435 163.312 128.59 163.337 128.502C163.362 128.414 163.397 128.312 163.415 128.217C163.411 128.147 163.376 128.076 163.323 128.03C163.27 127.981 163.199 127.957 163.124 127.96C163.05 127.96 162.983 127.992 162.933 128.045C162.883 128.097 162.855 128.164 162.855 128.238C162.855 128.312 162.883 128.379 162.933 128.432C162.983 128.484 163.053 128.512 163.124 128.516C163.195 128.516 163.266 128.491 163.323 128.446C163.376 128.396 163.408 128.33 163.415 128.259C163.415 128.259 163.433 128.22 163.447 128.199C163.472 128.154 163.5 128.108 163.532 128.062C163.603 127.943 163.624 127.798 163.588 127.661C163.553 127.527 163.464 127.411 163.34 127.341C163.22 127.274 163.075 127.256 162.94 127.292C162.805 127.327 162.688 127.415 162.614 127.531H162.6H162.603Z" fill="white"/>
<path d="M167.525 24.4056C167.525 24.4056 173.857 4.70375 201.599 7.07853C229.34 9.45331 224.277 40.716 224.277 40.716C224.277 40.716 241.076 39.9068 242.408 51.3092C243.741 62.7117 227.203 65.0795 220.793 54.4756C220.793 54.4756 214.876 68.7771 203.696 67.7181C203.707 67.7287 169.467 47.0311 167.525 24.4056Z" fill="#13161D"/>
<path d="M201.379 27.639C207.495 25.0074 213.274 21.6721 218.6 17.6966C220.102 16.5743 221.566 15.4027 222.994 14.1784C223.514 13.7351 222.76 12.9928 222.242 13.4325C217.239 17.6896 211.75 21.352 205.886 24.3389C204.231 25.1833 202.552 25.9714 200.84 26.7067C200.213 26.9776 200.755 27.8888 201.379 27.6179V27.639Z" fill="white"/>
<path d="M203.533 31.3613C203.509 32.4203 203.703 33.4722 204.1 34.4538C204.497 35.4354 205.092 36.3255 205.851 37.0713C206.336 37.5498 207.091 36.804 206.602 36.3255C205.946 35.6781 205.429 34.9006 205.085 34.0492C204.742 33.1943 204.575 32.2796 204.596 31.3613C204.614 30.6823 203.551 30.6823 203.533 31.3613Z" fill="white"/>
<path d="M207.328 30.8301L208.93 33.7924C209.001 33.9121 209.118 34 209.256 34.0352C209.394 34.0704 209.536 34.0528 209.66 33.9824C209.777 33.9085 209.865 33.7924 209.901 33.6587C209.936 33.5251 209.919 33.3808 209.851 33.2612L208.246 30.2954C208.175 30.1757 208.058 30.0878 207.92 30.0526C207.786 30.0174 207.64 30.0385 207.516 30.1089C207.396 30.1793 207.307 30.2954 207.272 30.4326C207.236 30.5663 207.258 30.7105 207.328 30.8336V30.8301Z" fill="white"/>
<path d="M223.603 42.3698C223.401 45.7367 222.264 48.984 220.322 51.7528C219.929 52.3122 220.85 52.8399 221.24 52.284C223.281 49.3569 224.468 45.9266 224.666 42.3698C224.705 41.6907 223.642 41.6943 223.603 42.3698Z" fill="white"/>
<path d="M167.526 24.4058C167.526 24.4058 150.05 74.0334 181.161 74.0334V78.3467L203.707 72.4396V59.0987C203.707 59.0987 218.696 56.263 217.984 44.6741C217.272 33.0851 202.995 41.8384 202.995 41.8384C202.995 41.8384 196.334 40.4311 197.283 29.7921C197.283 29.8062 173.932 31.998 167.526 24.4058Z" fill="#F9A45B"/>
<path d="M208.249 44.885C205.613 46.8447 203.838 49.7331 203.288 52.9558C203.264 53.0683 203.274 53.1844 203.32 53.29C203.366 53.3955 203.444 53.4835 203.544 53.5398C203.643 53.5961 203.76 53.6207 203.873 53.6101C203.986 53.5996 204.096 53.5503 204.178 53.4729C204.833 52.9135 205.503 52.3788 206.198 51.8686C206.524 51.6294 206.857 51.3972 207.19 51.165C207.388 51.0313 207.767 50.69 208.008 50.8695C208.129 50.9328 208.27 50.9504 208.405 50.9117C208.536 50.873 208.65 50.7885 208.72 50.6689C208.791 50.5493 208.809 50.4121 208.777 50.2784C208.745 50.1447 208.66 50.0321 208.543 49.9583C207.707 49.3285 206.669 50.2327 206.01 50.7041C205.12 51.3409 204.259 52.0129 203.427 52.72L204.312 53.2337C204.794 50.2784 206.4 47.6151 208.798 45.7962C209.341 45.3916 208.798 44.4769 208.263 44.885H208.249Z" fill="#13161D"/>
<path d="M181.16 74.0333C181.16 74.0333 189.452 73.1151 194.863 67.7815C194.863 67.7815 191.585 78.0968 181.16 78.0933V74.0333Z" fill="#13161D"/>
<path d="M203.707 72.4431L203.788 81.3019C203.788 81.3019 226.112 83.1525 242.486 99.1567C258.86 115.161 248.368 232.771 248.368 232.771H166.636V219.971C166.636 219.971 148.277 229.573 169.315 93.5558C169.315 93.5558 172.075 88.1307 180.703 85.9037L181.16 78.3502L203.707 72.4431Z" fill="#FACB55"/>
<path d="M177.883 86.6988C186.72 84.901 195.525 82.9519 204.295 80.8516C206.786 80.2535 209.267 79.6448 211.737 79.0221C212.399 78.8568 212.119 77.8365 211.453 78.0054C202.711 80.1937 193.927 82.2307 185.101 84.1129C182.596 84.6477 180.087 85.1684 177.582 85.6785C176.912 85.8158 177.195 86.8325 177.865 86.6988H177.883Z" fill="white"/>
<path d="M188.126 75.6728L187.899 83.2018C187.899 83.8808 188.962 83.8808 188.962 83.2018L189.189 75.6728C189.207 74.9938 188.144 74.9938 188.126 75.6728Z" fill="white"/>
<path d="M196.985 72.7597C196.893 75.6763 196.673 78.5859 196.329 81.4849C196.251 82.1604 197.314 82.1533 197.392 81.4849C197.74 78.5894 197.959 75.6798 198.048 72.7597C198.069 72.0807 197.006 72.0807 196.985 72.7597Z" fill="white"/>
<path d="M174.92 95.7863C174.3 96.8417 173.68 98.0098 174.034 99.2552C174.335 100.311 175.366 101.099 176.486 100.729C176.766 100.652 177.018 100.501 177.216 100.29C177.415 100.078 177.549 99.8181 177.609 99.5367C177.645 99.403 177.627 99.2657 177.56 99.1426C177.493 99.023 177.386 98.9315 177.255 98.8893C177.12 98.8541 176.975 98.8717 176.851 98.9421C176.731 99.0124 176.639 99.125 176.603 99.2587C176.592 99.3185 176.578 99.3783 176.561 99.4381C176.585 99.3537 176.561 99.4381 176.536 99.4768C176.493 99.5753 176.585 99.4417 176.515 99.512C176.515 99.5296 176.359 99.6527 176.451 99.5824C176.412 99.6105 176.373 99.6352 176.334 99.6598C176.334 99.6598 176.185 99.7266 176.291 99.6844C176.238 99.7055 176.185 99.7231 176.132 99.7372C176.107 99.7372 175.94 99.7653 176.057 99.7548C176.008 99.7583 175.962 99.7583 175.912 99.7548C175.912 99.7548 175.735 99.7548 175.792 99.7548C175.848 99.7548 175.692 99.7231 175.678 99.7196C175.561 99.695 175.731 99.7618 175.629 99.7196C175.452 99.6246 175.31 99.4804 175.211 99.308C175.001 98.9104 174.948 98.4495 175.065 98.0168C175.239 97.4187 175.508 96.8487 175.855 96.3316C175.919 96.212 175.937 96.0712 175.898 95.9375C175.859 95.8074 175.774 95.6948 175.653 95.6244C175.533 95.5541 175.395 95.5365 175.26 95.5681C175.126 95.5998 175.009 95.6842 174.938 95.7968L174.92 95.7827V95.7863Z" fill="white"/>
<path d="M188.807 107.066C188.314 108.1 187.797 109.289 188.247 110.433C188.424 110.943 188.785 111.365 189.26 111.622C189.487 111.731 189.735 111.791 189.983 111.794C190.235 111.801 190.483 111.752 190.716 111.657C190.986 111.555 191.223 111.379 191.397 111.15C191.57 110.922 191.677 110.647 191.705 110.362C191.705 110.222 191.648 110.088 191.549 109.989C191.45 109.891 191.315 109.835 191.174 109.835C191.032 109.835 190.897 109.891 190.798 109.989C190.699 110.088 190.642 110.222 190.642 110.362C190.642 110.236 190.642 110.387 190.621 110.415C190.6 110.443 190.621 110.443 190.621 110.39C190.61 110.419 190.596 110.443 190.582 110.468C190.582 110.496 190.483 110.58 190.561 110.499L190.468 110.591C190.438 110.617 190.438 110.617 190.468 110.591L190.408 110.626C190.362 110.651 190.32 110.679 190.27 110.7C190.355 110.665 190.27 110.7 190.224 110.7L190.089 110.732C190.206 110.707 190.089 110.732 190.047 110.732C189.994 110.735 189.94 110.735 189.887 110.732H189.912L189.824 110.711C189.799 110.711 189.678 110.651 189.781 110.711L189.639 110.633C189.59 110.594 189.583 110.594 189.618 110.633L189.558 110.58C189.512 110.538 189.469 110.496 189.43 110.45C189.363 110.376 189.43 110.485 189.384 110.39C189.267 110.222 189.189 110.028 189.15 109.824C189.15 109.824 189.122 109.655 189.15 109.75V109.588C189.143 109.448 189.15 109.307 189.168 109.166C189.281 108.624 189.473 108.1 189.735 107.611C189.802 107.488 189.82 107.347 189.785 107.21C189.749 107.076 189.664 106.96 189.544 106.886C189.423 106.823 189.285 106.809 189.15 106.844C189.019 106.879 188.906 106.964 188.835 107.076L188.807 107.066Z" fill="white"/>
<path d="M178.053 138.24C177.808 138.733 177.719 139.292 177.801 139.834C177.882 140.379 178.131 140.886 178.513 141.287C178.903 141.67 179.41 141.92 179.952 141.998C180.498 142.075 181.05 141.977 181.536 141.716C182.099 141.428 182.535 140.946 182.765 140.362C182.804 140.228 182.787 140.087 182.723 139.964C182.655 139.845 182.546 139.753 182.411 139.711C182.273 139.676 182.131 139.697 182.007 139.764C181.887 139.834 181.794 139.947 181.755 140.08C181.798 139.978 181.716 140.154 181.706 140.172C181.695 140.189 181.638 140.277 181.603 140.334C181.568 140.383 181.568 140.39 181.603 140.334L181.539 140.404C181.497 140.453 181.451 140.495 181.405 140.541C181.359 140.587 181.238 140.671 181.327 140.608C181.274 140.647 181.22 140.682 181.164 140.714C181.111 140.749 181.054 140.78 180.994 140.809L180.944 140.83C180.831 140.875 180.71 140.911 180.59 140.939H180.012C179.948 140.925 179.888 140.907 179.828 140.886L179.69 140.879C179.736 140.879 179.739 140.9 179.707 140.879C179.597 140.826 179.491 140.766 179.396 140.692C179.484 140.759 179.335 140.636 179.321 140.622C179.307 140.608 179.233 140.527 179.19 140.481C179.147 140.432 179.147 140.436 179.19 140.481L179.133 140.4C179.098 140.348 179.066 140.295 179.034 140.239C179.002 140.182 178.974 140.126 178.945 140.066C178.992 140.165 178.945 140.01 178.921 139.992C178.882 139.876 178.853 139.76 178.832 139.64C178.853 139.76 178.832 139.567 178.832 139.542V139.352C178.832 139.289 178.857 139.134 178.832 139.253C178.832 139.19 178.857 139.13 178.871 139.067C178.885 139.004 178.91 138.944 178.928 138.884C178.945 138.824 178.953 138.824 178.928 138.884L178.981 138.768C179.045 138.648 179.059 138.511 179.023 138.381C178.988 138.251 178.903 138.138 178.79 138.064C178.669 138.001 178.531 137.983 178.396 138.019C178.265 138.054 178.152 138.135 178.081 138.251L178.053 138.24Z" fill="white"/>
<path d="M173.992 180.142C173.832 181.317 173.68 182.605 174.314 183.681C174.569 184.093 174.941 184.42 175.381 184.621C175.823 184.821 176.312 184.888 176.794 184.814C177.053 184.775 177.301 184.677 177.514 184.526C177.726 184.374 177.9 184.174 178.02 183.942C178.084 183.822 178.098 183.681 178.063 183.551C178.027 183.421 177.946 183.308 177.829 183.238C177.709 183.175 177.57 183.161 177.436 183.196C177.305 183.231 177.191 183.315 177.12 183.428L177.064 183.53C177.064 183.548 177.035 183.569 177.025 183.59C177.014 183.611 177.092 183.516 177.053 183.555L176.979 183.632C176.933 183.678 176.879 183.699 176.979 183.653C176.943 183.671 176.911 183.699 176.876 183.716C176.84 183.734 176.773 183.79 176.826 183.745C176.855 183.745 176.879 183.699 176.826 183.745L176.773 183.762C176.727 183.776 176.681 183.79 176.635 183.797C176.603 183.797 176.511 183.797 176.578 183.797C176.646 183.797 176.546 183.797 176.518 183.797H176.252C176.164 183.797 176.295 183.797 176.298 183.797C176.281 183.797 176.259 183.797 176.242 183.797L176.125 183.773C176.036 183.752 175.951 183.716 175.862 183.688C175.774 183.66 175.894 183.688 175.898 183.706L175.845 183.678C175.802 183.66 175.76 183.639 175.721 183.614L175.621 183.555C175.6 183.555 175.494 183.463 175.547 183.505C175.6 183.548 175.497 183.46 175.48 183.446L175.398 183.361L175.32 183.273C175.402 183.365 175.32 183.249 175.285 183.21C175.168 183.037 175.086 182.844 175.04 182.64C175.012 182.534 174.991 182.429 174.973 182.323C174.955 182.218 174.973 182.278 174.973 182.299V182.028C174.955 181.746 174.955 181.465 174.973 181.187C174.973 181.057 174.998 180.923 175.012 180.793C175.012 180.719 175.012 180.645 175.04 180.571V180.487C175.04 180.385 175.04 180.61 175.04 180.434C175.072 180.3 175.055 180.156 174.984 180.036C174.913 179.917 174.799 179.825 174.668 179.787C174.534 179.751 174.388 179.769 174.264 179.839C174.14 179.91 174.052 180.022 174.013 180.156L173.992 180.142Z" fill="white"/>
<path d="M183.711 164.986C183.711 165.862 183.782 166.783 184.384 167.473C184.643 167.747 184.983 167.927 185.355 167.997C185.727 168.064 186.11 168.011 186.45 167.846C186.648 167.751 186.819 167.603 186.943 167.424C187.067 167.241 187.141 167.033 187.159 166.811C187.159 166.671 187.102 166.537 187.003 166.439C186.9 166.34 186.769 166.287 186.627 166.284C186.485 166.284 186.351 166.34 186.252 166.439C186.159 166.541 186.103 166.674 186.096 166.811C186.096 166.811 186.124 166.685 186.096 166.734C186.067 166.783 186.096 166.766 186.096 166.783C186.057 166.889 186.096 166.801 186.096 166.783C186.135 166.678 186.096 166.783 186.096 166.804C186.096 166.815 186.096 166.822 186.096 166.833C186.053 166.906 186.096 166.801 186.131 166.79C186.113 166.804 186.099 166.822 186.085 166.84C186.067 166.84 185.989 166.921 186.067 166.84C186.145 166.759 186.067 166.84 186.046 166.84L185.972 166.878C185.872 166.931 186.078 166.843 186 166.878L185.918 166.903H185.794C185.734 166.903 185.922 166.903 185.862 166.903H185.603C185.486 166.903 185.727 166.931 185.603 166.903L185.437 166.861C185.415 166.85 185.391 166.843 185.366 166.836C185.422 166.861 185.511 166.871 185.366 166.836L185.288 166.79C185.199 166.702 185.245 166.762 185.288 166.79C185.242 166.745 185.189 166.702 185.146 166.653L185.111 166.611C185.072 166.569 185.139 166.646 185.139 166.65C185.139 166.653 185.086 166.576 185.072 166.548C185.057 166.519 184.994 166.389 184.948 166.315C184.948 166.315 184.987 166.414 184.969 166.361C184.969 166.344 184.969 166.33 184.969 166.312C184.955 166.273 184.941 166.235 184.93 166.192C184.905 166.111 184.887 166.03 184.87 165.95C184.87 165.904 184.87 165.858 184.841 165.809C184.841 165.791 184.841 165.774 184.841 165.756C184.841 165.809 184.841 165.848 184.841 165.756C184.841 165.665 184.824 165.573 184.816 165.482V164.898C184.816 164.757 184.76 164.623 184.661 164.525C184.561 164.426 184.427 164.37 184.285 164.37C184.143 164.37 184.009 164.426 183.909 164.525C183.81 164.623 183.753 164.757 183.753 164.898L183.711 164.986Z" fill="white"/>
<path d="M173.085 205.072C173.772 207.018 176.834 207.369 177.883 205.543C177.947 205.424 177.961 205.287 177.925 205.156C177.89 205.026 177.805 204.914 177.691 204.84C177.571 204.769 177.426 204.752 177.287 204.787C177.153 204.822 177.036 204.91 176.965 205.03L176.876 205.167C176.82 205.259 176.94 205.104 176.876 205.188C176.813 205.259 176.749 205.322 176.678 205.385C176.6 205.459 176.759 205.336 176.66 205.385L176.561 205.452L176.441 205.519C176.412 205.519 176.274 205.593 176.402 205.54C176.239 205.603 176.072 205.653 175.898 205.677C176.04 205.653 175.898 205.677 175.856 205.677H175.711C175.622 205.684 175.533 205.684 175.445 205.677C175.413 205.677 175.261 205.649 175.402 205.677L175.278 205.656L175.002 205.582L174.889 205.54C174.775 205.501 174.963 205.582 174.864 205.54C174.765 205.498 174.697 205.456 174.619 205.406L174.52 205.339C174.633 205.417 174.495 205.318 174.47 205.297C174.446 205.276 174.361 205.185 174.304 205.128C174.247 205.072 174.35 205.206 174.279 205.093C174.254 205.054 174.226 205.016 174.205 204.977C174.183 204.938 174.166 204.907 174.148 204.872C174.123 204.822 174.13 204.836 174.148 204.872C174.148 204.843 174.13 204.819 174.12 204.794C174.077 204.664 173.985 204.555 173.865 204.492C173.744 204.425 173.602 204.407 173.468 204.442C173.337 204.485 173.223 204.572 173.159 204.696C173.092 204.815 173.078 204.959 173.113 205.09L173.085 205.072Z" fill="white"/>
<path d="M214.206 134.335C213.802 135.317 213.54 136.611 214.284 137.502C215.141 138.529 216.764 138.135 217.508 137.21C217.955 136.615 218.288 135.947 218.493 135.232C218.532 135.099 218.515 134.958 218.451 134.835C218.383 134.712 218.274 134.624 218.139 134.581C218.004 134.546 217.863 134.564 217.742 134.631C217.622 134.698 217.53 134.803 217.487 134.933C217.398 135.183 217.313 135.436 217.211 135.679C217.239 135.612 217.179 135.753 217.168 135.774C217.157 135.795 217.115 135.883 217.087 135.94C217.026 136.056 216.963 136.172 216.892 136.291L216.789 136.443L216.722 136.524L216.594 136.654L216.544 136.699C216.544 136.699 216.438 136.787 216.488 136.749C216.537 136.71 216.488 136.749 216.466 136.749L216.389 136.801L216.243 136.882C216.218 136.882 216.087 136.953 216.179 136.918L216.002 136.977C215.942 136.995 215.882 137.002 215.822 137.02C215.758 137.02 215.698 137.051 215.651 137.097C215.609 137.143 215.584 137.206 215.584 137.269C215.584 137.333 215.613 137.396 215.659 137.438C215.705 137.484 215.768 137.509 215.832 137.509C215.896 137.509 215.96 137.484 216.006 137.438C216.052 137.393 216.08 137.333 216.08 137.269C216.08 137.206 216.059 137.143 216.013 137.097C215.97 137.051 215.907 137.023 215.843 137.02H215.595C215.595 137.02 215.506 137.02 215.574 137.02C215.641 137.02 215.527 137.02 215.513 137.02C215.499 137.02 215.414 136.991 215.361 136.977C215.308 136.963 215.428 137.016 215.361 136.977C215.343 136.963 215.322 136.953 215.301 136.946C215.301 136.946 215.162 136.847 215.209 136.886C215.255 136.925 215.209 136.886 215.184 136.861L215.113 136.791L215.074 136.745C215.024 136.699 215.106 136.819 215.074 136.745C215.053 136.703 215.031 136.664 215.003 136.626C215.003 136.626 215.003 136.59 214.975 136.576C214.946 136.562 215 136.661 214.975 136.594C214.95 136.527 214.939 136.492 214.929 136.443C214.918 136.393 214.907 136.351 214.897 136.305V136.242C214.89 136.126 214.89 136.006 214.897 135.89V135.718C214.897 135.697 214.897 135.672 214.897 135.651C214.918 135.524 214.946 135.398 214.978 135.275C215.046 135.035 215.127 134.8 215.223 134.571C215.258 134.437 215.244 134.297 215.177 134.173C215.109 134.054 215 133.962 214.868 133.92C214.734 133.885 214.592 133.902 214.472 133.969C214.351 134.036 214.259 134.142 214.213 134.272L214.202 134.335H214.206Z" fill="white"/>
<path d="M200.561 88.8099C201.025 90.861 204.168 91.6244 205.493 89.9533C205.589 89.8512 205.642 89.7175 205.642 89.5803C205.642 89.4431 205.589 89.3094 205.493 89.2074C205.394 89.1089 205.259 89.0561 205.117 89.0561C204.976 89.0561 204.841 89.1124 204.742 89.2074C204.682 89.2883 204.611 89.3622 204.536 89.4291C204.536 89.4291 204.405 89.5416 204.462 89.4994C204.519 89.4572 204.387 89.5487 204.377 89.5557C204.292 89.6085 204.207 89.6542 204.115 89.6929C204.2 89.6542 204.115 89.6929 204.083 89.6929L203.962 89.7316C203.867 89.7598 203.767 89.7809 203.668 89.795C203.803 89.7738 203.647 89.795 203.615 89.795H203.158C203.055 89.795 203.25 89.8161 203.126 89.795L202.977 89.7633L202.701 89.6894L202.559 89.6366H202.584L202.506 89.5979C202.414 89.5557 202.325 89.5065 202.244 89.4502C202.205 89.4291 202.173 89.4044 202.134 89.3798C202.095 89.3552 202.191 89.4326 202.091 89.3411C202.024 89.2813 201.957 89.218 201.896 89.1511C201.875 89.13 201.772 88.9893 201.843 89.0948C201.822 89.0597 201.797 89.0245 201.772 88.9893L201.709 88.8802C201.709 88.8591 201.627 88.6902 201.673 88.8134C201.638 88.7184 201.609 88.6234 201.585 88.5249C201.57 88.4545 201.539 88.3877 201.496 88.3314C201.454 88.2716 201.4 88.2258 201.34 88.1871C201.28 88.1484 201.209 88.1273 201.138 88.1168C201.067 88.1062 200.993 88.1133 200.926 88.1308C200.855 88.1484 200.791 88.1836 200.734 88.2258C200.678 88.2716 200.631 88.3279 200.596 88.3877C200.561 88.451 200.543 88.5214 200.536 88.5917C200.529 88.6621 200.536 88.736 200.561 88.8028V88.8099Z" fill="white"/>
<path d="M163.124 220.654C169.244 221.667 175.384 222.512 181.55 223.184C187.715 223.856 193.913 224.362 200.139 224.7C206.35 225.034 212.565 225.2 218.787 225.193C225.01 225.185 231.228 225.006 237.447 224.658C243.655 224.306 249.853 223.785 256.036 223.092C256.805 223.008 257.57 222.916 258.339 222.825C259.009 222.747 259.019 221.692 258.339 221.769C252.198 222.501 246.036 223.064 239.857 223.458C233.677 223.852 227.494 224.074 221.307 224.123C215.088 224.179 208.869 224.063 202.658 223.771C196.446 223.479 190.274 223.025 184.147 222.403C177.978 221.776 171.827 220.978 165.7 220.007C164.935 219.887 164.173 219.771 163.411 219.655C162.741 219.546 162.451 220.563 163.128 220.672V220.654H163.124Z" fill="white"/>
<path d="M176.926 222.079L176.529 238.263C176.529 238.942 177.592 238.942 177.592 238.263L177.989 222.079C177.989 221.4 176.926 221.4 176.926 222.079Z" fill="white"/>
<path d="M216.414 83.93C216.414 83.93 206.056 88.37 199.313 128.917C193.998 160.901 192.308 225.78 191.833 251.758C191.805 253.215 192.071 254.657 192.609 256.012C193.148 257.366 193.952 258.601 194.973 259.643C195.993 260.688 197.212 261.518 198.558 262.095C199.905 262.668 201.354 262.971 202.818 262.988L254.771 263.488C256.238 263.502 257.694 263.228 259.055 262.679C260.416 262.13 261.652 261.321 262.694 260.297C263.736 259.27 264.565 258.052 265.128 256.705C265.692 255.357 265.982 253.919 265.982 252.458V189.912L207.839 189.56C207.839 189.56 201.337 135.598 226.36 87.8C226.36 87.8 222.267 83.2088 216.41 83.9265L216.414 83.93Z" fill="#F9AF3D"/>
<path d="M239.573 224.19H259.77L259.267 223.687V251.241L259.77 250.742L250.912 250.555L236.827 250.27L233.571 250.203L234.074 250.703V224.411C234.074 224.278 234.021 224.151 233.925 224.056C233.829 223.961 233.702 223.912 233.571 223.912C233.439 223.912 233.308 223.965 233.216 224.056C233.124 224.148 233.067 224.278 233.067 224.411V250.703C233.067 250.837 233.124 250.96 233.216 251.055C233.312 251.146 233.436 251.202 233.571 251.202L242.468 251.385L256.557 251.667L259.813 251.734C259.948 251.734 260.072 251.681 260.167 251.586C260.263 251.491 260.316 251.364 260.316 251.234V223.704C260.316 223.634 260.302 223.567 260.274 223.504C260.245 223.44 260.203 223.384 260.153 223.338C260.104 223.293 260.043 223.257 259.976 223.233C259.909 223.208 259.841 223.201 259.77 223.205H239.573C239.446 223.215 239.329 223.272 239.244 223.367C239.158 223.458 239.109 223.581 239.109 223.708C239.109 223.834 239.155 223.954 239.244 224.049C239.329 224.141 239.449 224.2 239.573 224.211V224.193V224.19Z" fill="#13161D"/>
<path d="M235.494 228.236L240.009 232.19L242.301 234.196L243.364 235.114C243.697 235.455 244.062 235.765 244.452 236.036C245.249 236.504 245.947 235.715 246.525 235.255L248.92 233.341L253.64 229.573L258.962 225.316C259.469 224.911 258.753 224.207 258.254 224.612L249.423 231.648L247.234 233.408L246.206 234.227L245.66 234.664C245.483 234.846 245.281 235.005 245.061 235.135C244.799 235.223 244.395 234.706 244.193 234.526L243.081 233.555L240.99 231.712L236.206 227.529C235.721 227.106 235.005 227.81 235.498 228.232H235.494V228.236Z" fill="#13161D"/>
<path d="M206.152 224.19H226.349L225.846 223.687V251.242L226.349 250.742L217.452 250.563L203.363 250.278L200.107 250.211L200.61 250.71V224.412C200.61 224.278 200.557 224.151 200.461 224.06C200.365 223.965 200.238 223.912 200.107 223.912C199.976 223.912 199.844 223.965 199.752 224.06C199.657 224.155 199.604 224.282 199.604 224.412V250.703C199.604 250.837 199.66 250.96 199.752 251.055C199.848 251.15 199.972 251.203 200.107 251.203L209.004 251.386L223.093 251.667L226.349 251.734C226.484 251.734 226.608 251.681 226.703 251.586C226.799 251.491 226.852 251.368 226.852 251.235V223.705C226.852 223.571 226.796 223.448 226.703 223.353C226.611 223.258 226.484 223.205 226.349 223.205H206.152C206.024 223.216 205.907 223.272 205.822 223.367C205.737 223.458 205.688 223.582 205.688 223.708C205.688 223.835 205.737 223.954 205.822 224.049C205.907 224.141 206.028 224.201 206.152 224.211V224.194V224.19Z" fill="#13161D"/>
<path d="M202.07 228.236L206.584 232.19L208.877 234.196L209.94 235.114C210.273 235.455 210.638 235.765 211.028 236.036C211.825 236.504 212.523 235.715 213.101 235.255L215.496 233.341L220.216 229.573L225.542 225.316C226.045 224.911 225.329 224.207 224.833 224.612L216.006 231.648L213.817 233.408L212.793 234.227L212.243 234.664C212.066 234.846 211.864 235.008 211.644 235.135C211.382 235.223 210.978 234.706 210.776 234.526L209.664 233.555L207.566 231.719L202.789 227.536C202.304 227.113 201.588 227.817 202.081 228.239H202.07V228.236Z" fill="#13161D"/>
<path d="M242.486 99.1566C242.486 99.1566 223.054 96.8979 223.706 129.167C224.358 161.436 211.793 202.134 188.01 232.771L208.519 251.793C208.519 251.793 250.399 227.627 255.558 175.449C259.771 132.717 250.204 114.644 242.486 99.1566Z" fill="#FACB55"/>
<path d="M192.775 223.152C199.526 230.579 206.233 238.044 212.898 245.549C214.787 247.688 216.679 249.83 218.568 251.973C219.021 252.486 219.769 251.737 219.323 251.227C212.682 243.698 205.999 236.208 199.274 228.76C197.357 226.649 195.437 224.531 193.512 222.406C193.052 221.899 192.301 222.649 192.761 223.152H192.775Z" fill="white"/>
<path d="M195.472 239.388C197.563 237.429 199.71 235.532 201.914 233.699C202.438 233.263 201.684 232.517 201.163 232.954C198.959 234.787 196.811 236.683 194.721 238.642C194.221 239.107 194.976 239.853 195.472 239.388Z" fill="white"/>
<path d="M202.169 246.731C204.699 245.218 207.19 243.642 209.642 242.002C210.209 241.622 209.678 240.708 209.107 241.091C206.655 242.734 204.164 244.31 201.63 245.82C201.51 245.89 201.421 246.006 201.386 246.143C201.351 246.28 201.372 246.425 201.443 246.544C201.514 246.664 201.63 246.752 201.769 246.787C201.907 246.822 202.049 246.801 202.173 246.731H202.169Z" fill="white"/>
<path d="M235.725 111.432C235.37 112.596 236.564 113.613 237.67 113.592C238.9 113.567 239.764 112.491 240.317 111.52C240.381 111.4 240.398 111.259 240.359 111.126C240.32 110.995 240.235 110.883 240.115 110.812C239.994 110.742 239.856 110.724 239.722 110.756C239.587 110.788 239.474 110.872 239.399 110.985C239.289 111.175 239.176 111.361 239.045 111.544L238.949 111.678C238.935 111.703 238.917 111.724 238.896 111.745C238.825 111.826 238.754 111.91 238.676 111.987C238.598 112.065 238.52 112.135 238.439 112.206C238.357 112.276 238.464 112.206 238.379 112.251C238.294 112.297 238.29 112.311 238.244 112.336L238.106 112.413C238.106 112.413 237.957 112.477 238.039 112.445L237.886 112.494C237.865 112.494 237.698 112.536 237.759 112.529C237.819 112.522 237.684 112.529 237.666 112.529H237.479L237.344 112.494L237.248 112.462L237.163 112.42L237.043 112.346L236.983 112.308C237.025 112.336 237.029 112.343 236.983 112.308C236.947 112.279 236.915 112.248 236.883 112.213C236.883 112.213 236.781 112.097 236.82 112.149C236.859 112.202 236.781 112.09 236.774 112.075C236.766 112.061 236.706 111.938 236.731 112.002C236.756 112.065 236.731 111.938 236.731 111.924C236.731 111.903 236.731 111.882 236.731 111.861C236.731 111.924 236.731 111.938 236.731 111.896C236.731 111.854 236.731 111.738 236.731 111.815C236.731 111.892 236.756 111.727 236.763 111.71C236.781 111.643 236.788 111.572 236.777 111.505C236.77 111.435 236.745 111.368 236.713 111.308C236.678 111.249 236.632 111.196 236.579 111.154C236.522 111.111 236.462 111.08 236.394 111.062C236.327 111.045 236.256 111.038 236.185 111.048C236.114 111.055 236.047 111.08 235.987 111.111C235.927 111.147 235.873 111.192 235.831 111.245C235.788 111.301 235.757 111.361 235.739 111.428H235.728L235.725 111.432Z" fill="white"/>
<path d="M230.361 149.963C230.201 150.589 230.24 151.247 230.478 151.852C230.712 152.454 231.13 152.971 231.668 153.326C232.232 153.675 232.894 153.826 233.553 153.749C234.212 153.675 234.825 153.379 235.293 152.915C235.846 152.398 236.179 151.69 236.229 150.937C236.229 150.797 236.172 150.663 236.073 150.565C235.974 150.466 235.839 150.41 235.697 150.41C235.555 150.41 235.424 150.47 235.325 150.568C235.226 150.667 235.169 150.797 235.166 150.937C235.095 151.993 233.897 152.946 232.855 152.697C232.334 152.559 231.888 152.225 231.612 151.764C231.335 151.303 231.254 150.755 231.385 150.234C231.413 150.1 231.392 149.963 231.321 149.847C231.25 149.731 231.137 149.646 231.006 149.611C230.875 149.576 230.733 149.59 230.616 149.653C230.495 149.717 230.403 149.826 230.361 149.952V149.959V149.963Z" fill="white"/>
<path d="M244.941 169.141C244.785 169.64 244.817 170.182 245.03 170.66C245.243 171.139 245.618 171.529 246.096 171.758C246.571 171.987 247.113 172.036 247.624 171.899C248.134 171.762 248.577 171.452 248.875 171.019C248.938 170.9 248.956 170.762 248.921 170.629C248.885 170.499 248.8 170.386 248.683 170.316C248.559 170.249 248.417 170.231 248.283 170.266C248.148 170.302 248.031 170.386 247.957 170.502C248.035 170.397 247.957 170.502 247.925 170.537C247.893 170.572 247.858 170.604 247.822 170.636C247.822 170.653 247.702 170.724 247.822 170.653L247.723 170.72C247.677 170.752 247.631 170.777 247.581 170.801C247.553 170.801 247.439 170.857 247.56 170.801C247.486 170.829 247.408 170.854 247.33 170.875C247.28 170.893 247.223 170.903 247.17 170.907H246.904C246.823 170.907 246.851 170.907 246.926 170.907H246.848C246.809 170.907 246.766 170.907 246.727 170.875L246.614 170.84C246.515 170.805 246.695 170.882 246.575 170.819L246.451 170.748C246.426 170.731 246.33 170.657 246.426 170.748C246.359 170.692 246.295 170.632 246.235 170.569C246.235 170.548 246.128 170.428 246.203 170.534C246.182 170.502 246.157 170.47 246.135 170.435C246.114 170.4 246.093 170.365 246.075 170.33L246.033 170.249C246.065 170.319 246.004 170.175 246.001 170.161C245.997 170.147 245.976 170.083 245.965 170.045C245.955 170.006 245.965 169.964 245.941 169.925C245.916 169.82 245.941 170.027 245.941 169.886C245.937 169.798 245.937 169.714 245.941 169.626C245.916 169.714 245.941 169.506 245.941 169.626C245.965 169.538 245.965 169.521 245.98 169.468C246.011 169.334 245.99 169.193 245.923 169.074C245.852 168.954 245.739 168.87 245.608 168.831C245.473 168.796 245.331 168.81 245.211 168.877C245.09 168.944 244.998 169.053 244.959 169.183L244.945 169.137L244.941 169.141Z" fill="white"/>
<path d="M232.621 202.366C232.848 203.422 233.142 204.551 233.978 205.286C234.336 205.603 234.783 205.807 235.261 205.867C235.736 205.93 236.221 205.849 236.65 205.638C236.88 205.526 237.079 205.36 237.235 205.156C237.387 204.952 237.494 204.716 237.536 204.467C237.568 204.333 237.55 204.196 237.483 204.073C237.419 203.953 237.309 203.862 237.182 203.816C237.047 203.781 236.905 203.795 236.781 203.862C236.657 203.928 236.569 204.037 236.526 204.168C236.519 204.224 236.508 204.28 236.494 204.333C236.487 204.361 236.48 204.386 236.469 204.41C236.498 204.344 236.498 204.347 236.469 204.41C236.441 204.477 236.43 204.477 236.409 204.512L236.356 204.572C236.335 204.593 236.2 204.699 236.31 204.621L236.211 204.688L236.062 204.766C236.182 204.706 236.019 204.766 235.991 204.787C235.963 204.808 235.91 204.811 235.867 204.818C235.825 204.826 235.654 204.854 235.793 204.84C235.69 204.847 235.584 204.847 235.481 204.84C235.456 204.84 235.265 204.815 235.399 204.84L235.226 204.804L235.098 204.766L235.013 204.738C235.053 204.754 235.053 204.754 235.013 204.738C234.602 204.495 234.287 204.125 234.117 203.682C234.063 203.57 234.028 203.478 233.971 203.33C233.915 203.183 233.886 203.07 233.851 202.94C233.769 202.658 233.706 202.373 233.642 202.085C233.603 201.955 233.511 201.842 233.39 201.779C233.27 201.712 233.128 201.698 232.993 201.733C232.859 201.772 232.745 201.856 232.678 201.976C232.607 202.095 232.586 202.236 232.621 202.366Z" fill="white"/>
<path d="M215.478 197.272C214.993 197.743 214.681 198.363 214.589 199.031C214.497 199.699 214.631 200.379 214.971 200.959C215.312 201.543 215.836 201.997 216.463 202.25C217.09 202.503 217.788 202.542 218.44 202.363C218.564 202.317 218.671 202.226 218.731 202.106C218.791 201.986 218.805 201.853 218.77 201.722C218.735 201.596 218.653 201.483 218.54 201.413C218.426 201.342 218.292 201.318 218.161 201.339C217.735 201.459 217.278 201.43 216.871 201.265C216.46 201.1 216.12 200.801 215.896 200.421C215.677 200.041 215.588 199.597 215.648 199.161C215.709 198.725 215.914 198.32 216.229 198.014C216.325 197.916 216.375 197.782 216.371 197.645C216.371 197.508 216.314 197.377 216.215 197.282C216.116 197.187 215.985 197.131 215.85 197.128C215.712 197.128 215.577 197.177 215.478 197.268V197.272Z" fill="white"/>
<path d="M216.35 223.475C216.233 224.102 216.332 224.749 216.626 225.315C216.924 225.882 217.402 226.332 217.987 226.596C218.571 226.86 219.227 226.923 219.851 226.776C220.474 226.628 221.03 226.276 221.431 225.776C221.527 225.674 221.58 225.541 221.58 225.403C221.58 225.266 221.527 225.133 221.431 225.031C221.332 224.932 221.197 224.879 221.055 224.879C220.914 224.879 220.779 224.936 220.68 225.031C220.432 225.372 220.074 225.622 219.666 225.734C219.266 225.857 218.837 225.833 218.451 225.671C218.093 225.502 217.799 225.228 217.608 224.886C217.505 224.714 217.434 224.527 217.398 224.33C217.374 224.246 217.367 224.158 217.367 224.07C217.363 224.01 217.363 223.954 217.367 223.894C217.367 223.873 217.367 223.708 217.367 223.775C217.398 223.641 217.377 223.497 217.31 223.377C217.239 223.257 217.129 223.166 216.995 223.124C216.86 223.088 216.718 223.103 216.598 223.169C216.477 223.236 216.385 223.345 216.343 223.475H216.35Z" fill="white"/>
<path d="M188.009 232.771C188.009 232.771 169.796 243.016 171.834 246.33C173.719 249.394 184.969 243.111 184.969 243.111C184.969 243.111 170.969 251.614 171.876 253.947C173.411 257.898 189.895 250.077 189.895 250.077C189.895 250.077 177.425 256.687 178.58 259.224C180.352 263.073 194.792 255.044 194.792 255.044C194.792 255.044 186.33 260.079 186.84 262.475C188.009 267.949 208.519 251.808 208.519 251.808L188.009 232.771Z" fill="#F9A45B"/>
<path d="M222.441 134.096C223.033 141.016 222.813 147.982 221.785 154.853C220.744 161.742 219.085 168.525 216.825 175.118C214.557 181.722 211.846 188.163 208.714 194.408C205.585 200.706 202.119 206.827 198.484 212.844C194.848 218.86 191.043 224.805 187.195 230.705L185.777 232.89C185.405 233.464 186.327 233.995 186.695 233.425C190.547 227.49 194.398 221.555 198.094 215.524C201.79 209.494 205.358 203.33 208.586 197.015C211.811 190.777 214.628 184.343 217.027 177.75C219.422 171.167 221.233 164.388 222.434 157.488C223.639 150.614 224.064 143.627 223.695 136.657C223.646 135.802 223.582 134.947 223.504 134.092C223.444 133.424 222.381 133.417 222.441 134.092V134.096Z" fill="white"/>
<path d="M214.365 183.118C216.034 182.767 217.696 183.308 219.177 184.058C220.751 184.853 222.239 185.817 223.745 186.746C224.33 187.097 224.865 186.186 224.28 185.834C222.639 184.835 221.02 183.748 219.277 182.932C217.643 182.169 215.882 181.704 214.082 182.098C213.416 182.246 213.699 183.263 214.365 183.118Z" fill="white"/>
<path d="M245.672 209.748C243.088 216.003 239.666 221.878 235.498 227.222C234.336 228.714 233.11 230.16 231.835 231.56C231.378 232.063 232.129 232.813 232.586 232.306C237.242 227.194 241.175 221.477 244.279 215.31C245.151 213.582 245.952 211.816 246.689 210.032C246.947 209.403 245.92 209.128 245.665 209.751H245.672V209.748Z" fill="white"/>
<path d="M174.265 111.657C172.848 117.198 171.601 122.778 170.46 128.379C169.244 134.328 168.142 140.302 167.161 146.293C166.137 152.443 165.212 158.607 164.379 164.782C163.561 170.833 162.827 176.895 162.179 182.971C161.566 188.716 161.034 194.472 160.588 200.231C160.535 200.899 160.481 201.568 160.435 202.24C160.386 202.915 161.449 202.912 161.498 202.24C161.913 196.561 162.416 190.89 163.004 185.226C163.628 179.181 164.337 173.148 165.13 167.125C165.938 160.985 166.838 154.86 167.827 148.749C168.805 142.726 169.886 136.72 171.065 130.732C172.189 125.103 173.415 119.474 174.8 113.891C174.96 113.24 175.126 112.589 175.289 111.938C175.452 111.287 174.435 110.999 174.265 111.657Z" fill="white"/>
<path d="M153.429 156.746C155.173 162.35 156.25 168.134 156.64 173.985C156.75 175.628 156.803 177.275 156.803 178.932C156.803 179.072 156.859 179.206 156.959 179.305C157.058 179.403 157.193 179.459 157.334 179.459C157.476 179.459 157.611 179.403 157.71 179.305C157.809 179.206 157.866 179.072 157.866 178.932C157.859 173.007 157.164 167.107 155.789 161.341C155.4 159.698 154.953 158.079 154.454 156.486C154.255 155.838 153.228 156.134 153.429 156.767V156.746Z" fill="white"/>
<path d="M0 102.935L40.1681 65.6707H96.3098C96.3098 65.6707 112.287 137.818 107.266 182.475C107.266 182.475 80.7897 212.168 60.7056 214.434H6.38876L0 102.935Z" fill="#ED6524"/>
<path d="M102.607 60.5692C92.8873 67.6127 83.5363 75.1451 74.5892 83.1349C70.0997 87.1457 65.7165 91.269 61.4396 95.5084C59.3136 97.6193 57.2052 99.7654 55.1111 101.947C54.0729 103.03 53.0205 104.11 52.0106 105.222C51.8157 105.377 51.6917 105.602 51.6562 105.845C51.6562 106.359 51.6988 106.872 51.7767 107.382L52.0531 110.932L52.9921 122.894L54.2996 139.567L55.795 158.667L57.3009 177.859L58.6474 195.049L59.6537 207.901C59.8167 209.987 59.9655 212.077 60.1427 214.159C60.1427 214.251 60.1427 214.339 60.164 214.43C60.2171 215.102 61.2801 215.109 61.227 214.43L61.0002 211.531L60.3837 203.637L59.4659 191.963L58.3497 177.714L57.1202 162.027L55.8871 146.269L54.7355 131.577L53.761 119.158L53.0524 110.225L52.8327 107.446C52.8291 106.957 52.7901 106.471 52.7193 105.989C52.7122 105.929 52.7122 105.866 52.7193 105.806L52.5634 106.179C64.5011 93.3869 77.3814 81.4954 91.105 70.6102C95.0523 67.479 99.067 64.4357 103.153 61.4804C103.702 61.0829 103.153 60.1682 102.618 60.5692H102.607Z" fill="white"/>
<path d="M1.83908 104.877C8.27036 105.099 14.7016 105.275 21.1329 105.447C28.0036 105.63 34.8707 105.817 41.7414 106.003C45.2281 106.102 48.7113 106.211 52.1944 106.33C52.8783 106.355 52.8783 105.3 52.1944 105.275C45.7631 105.05 39.3319 104.877 32.9006 104.705C26.0299 104.519 19.1593 104.353 12.2886 104.149C8.80542 104.047 5.32225 103.938 1.83908 103.822C1.1552 103.797 1.1552 104.853 1.83908 104.877Z" fill="white"/>
<path d="M59.0053 179.98C66.776 175.881 74.3908 171.512 81.8532 166.875C89.3156 162.238 96.5796 157.362 103.642 152.246C107.628 149.358 111.558 146.392 115.43 143.342C115.966 142.919 115.207 142.177 114.679 142.596C107.816 147.989 100.768 153.136 93.5287 158.03C86.2895 162.924 78.9015 167.557 71.3576 171.931C67.1055 174.39 62.8109 176.768 58.4702 179.058C57.8678 179.375 58.4029 180.286 59.0053 179.97V179.98Z" fill="white"/>
<path d="M70.1981 182.432C79.2054 178.267 87.7025 173.092 95.5228 167.002C97.7445 165.271 99.906 163.469 102.011 161.601C102.521 161.147 101.77 160.401 101.26 160.855C93.8893 167.413 85.782 173.106 77.0971 177.82C74.6628 179.139 72.1895 180.381 69.6772 181.539C69.0571 181.824 69.5957 182.735 70.2123 182.45L70.1981 182.432Z" fill="#13161D"/>
<path d="M72.0301 190.725C80.4918 186.795 88.5247 182.024 96.0119 176.48C98.138 174.91 100.211 173.282 102.227 171.593C102.751 171.157 101.997 170.414 101.476 170.847C94.3465 176.768 86.629 181.957 78.4437 186.327C76.1582 187.551 73.8373 188.709 71.4809 189.799C70.8608 190.088 71.3994 190.999 72.016 190.711L72.0301 190.725Z" fill="#13161D"/>
<path d="M73.4654 198.49C82.1857 195.598 89.68 190.176 96.9546 184.747C98.9638 183.245 101.037 181.782 102.557 179.766C102.968 179.22 102.047 178.71 101.639 179.231C100.314 180.99 98.4819 182.295 96.7314 183.601C94.981 184.906 93.188 186.25 91.3738 187.537C87.7879 190.162 84.007 192.516 80.0668 194.574C77.8486 195.71 75.5489 196.678 73.1819 197.469C72.537 197.684 72.8276 198.704 73.4654 198.486V198.49Z" fill="#13161D"/>
<path d="M68.9054 124.407C67.6758 118.391 66.7404 112.325 66.099 106.207L65.7092 106.717C66.2939 106.619 66.8927 106.636 67.4668 106.77C68.0443 106.904 68.59 107.15 69.0684 107.491C69.5503 107.836 69.9578 108.269 70.2661 108.772C70.5743 109.275 70.7834 109.831 70.872 110.411C71.2724 113.05 69.1853 114.932 67.3498 116.473C66.829 116.913 67.5837 117.655 68.101 117.219C69.2456 116.259 70.4007 115.252 71.1696 113.954C71.9067 112.726 72.1512 111.266 71.8464 109.866C71.524 108.483 70.6771 107.277 69.4794 106.499C68.2818 105.722 66.829 105.433 65.4222 105.697C65.3088 105.729 65.2096 105.795 65.1388 105.887C65.0679 105.978 65.0289 106.091 65.0324 106.207C65.6809 112.41 66.6234 118.57 67.8672 124.688C68.0018 125.353 69.0259 125.072 68.8912 124.407H68.9018H68.9054Z" fill="white"/>
<path d="M76.5234 96.4864C74.199 97.5032 73.5505 100.691 73.3344 102.932C73.1041 105.581 73.586 108.241 74.734 110.644C75.0175 111.235 75.3399 111.808 75.7049 112.353C76.038 112.853 76.4136 113.434 76.9557 113.715C78.1499 114.32 79.4042 113.409 80.042 112.434C80.7507 111.354 80.9421 110.024 80.9846 108.765C81.02 107.505 80.9775 106.242 80.8606 104.986C80.6338 102.383 79.9924 99.5789 77.831 97.8691C77.303 97.4504 76.5447 98.1927 77.0798 98.6149C78.7239 99.9167 79.3865 101.904 79.6771 103.892C79.8153 104.951 79.8932 106.017 79.9109 107.087C79.9924 108.195 79.9322 109.307 79.7302 110.397C79.5212 111.302 78.94 112.765 77.8239 112.835C77.3243 112.871 77.0337 112.399 76.7821 112.04C76.4313 111.541 76.1159 111.017 75.8396 110.475C74.7907 108.417 74.2769 106.133 74.3442 103.829C74.3761 102.562 74.5887 101.31 74.9821 100.107C75.3364 98.9949 75.9211 97.8796 77.0479 97.3836C77.675 97.1127 77.1329 96.2015 76.5128 96.4724L76.5234 96.4864Z" fill="white"/>
<path d="M85.1448 90.4071C84.9535 90.1467 84.6842 89.9532 84.3759 89.8547C84.0676 89.7562 83.7346 89.7597 83.4263 89.8617C82.7176 90.0904 82.3101 90.7342 82.0656 91.3851C81.4668 92.9683 81.6617 94.7485 82.1365 96.3352C83.0471 99.3644 85.3256 102.175 85.1378 105.461C85.0598 106.9 84.4645 108.374 83.1747 109.141C83.0542 109.212 82.9656 109.328 82.9302 109.465C82.8948 109.602 82.916 109.743 82.9869 109.866C83.0578 109.986 83.1747 110.074 83.3129 110.109C83.4475 110.144 83.5928 110.123 83.7168 110.053C85.935 108.733 86.5197 105.922 86.0626 103.551C85.4673 100.451 83.3731 97.8621 82.8558 94.7555C82.6963 93.876 82.7282 92.9718 82.955 92.1063C83.033 91.7404 83.196 91.3992 83.4298 91.1072C83.5893 90.9348 84.0287 90.6885 84.2306 90.9524C84.6381 91.4836 85.563 90.9524 85.1484 90.4176V90.4035L85.1448 90.4071Z" fill="white"/>
<path d="M85.2937 87.0858C87.7812 85.573 90.0454 83.7295 92.0262 81.6045C92.4904 81.1084 91.7427 80.3591 91.275 80.8586C89.3615 82.9203 87.1682 84.7075 84.7622 86.1746C84.1811 86.5265 84.7161 87.4412 85.3008 87.0858H85.2937Z" fill="white"/>
<path d="M87.5083 84.9011C88.7166 90.8574 89.7796 96.8384 90.6973 102.844C90.8001 103.512 91.8241 103.227 91.7214 102.562C90.8036 96.5569 89.7406 90.576 88.5323 84.6197C88.3977 83.9547 87.3736 84.2362 87.5083 84.9011Z" fill="white"/>
<path d="M94.7751 109.602L67.6113 131.38L68.5114 140.049L95.7389 118.159L94.7751 109.602Z" fill="#13161D"/>
<path d="M127.612 105.162L115.079 127.017L72.5898 136.77L95.2995 114.264L127.612 105.162Z" fill="#F2ECE5"/>
<path d="M91.0587 116.906C92.104 117.895 93.1847 118.852 94.3009 119.763C94.8749 120.231 95.456 120.688 96.0442 121.131C96.5651 121.525 97.1073 122.039 97.7486 122.233C98.39 122.426 99.0207 122.145 99.5877 121.839C100.24 121.487 100.888 121.135 101.54 120.783C102.862 120.062 104.18 119.334 105.495 118.598C110.707 115.685 115.855 112.667 120.944 109.546C123.803 107.794 126.638 106.01 129.448 104.191C130.018 103.84 129.487 102.911 128.913 103.28C124.087 106.39 119.204 109.405 114.261 112.329C109.318 115.253 104.325 118.085 99.2794 120.825C98.9746 121.043 98.6239 121.195 98.2553 121.265C97.901 121.265 97.5785 120.98 97.3128 120.783C96.6785 120.315 96.0549 119.837 95.4419 119.348C94.1875 118.342 92.9757 117.286 91.8099 116.181C91.3173 115.713 90.5626 116.456 91.0587 116.927V116.906Z" fill="#13161D"/>
<path d="M143.427 127.879L135.929 107.618C135.929 107.618 117.432 101.014 115.352 103.491C113.272 105.968 123.665 112.382 123.665 112.382L115.08 127.017L117.103 140.784L143.427 127.879Z" fill="#F9A45B"/>
<path d="M123.584 111.988C122.623 114.383 122.297 116.98 122.638 119.538C122.978 122.092 123.974 124.519 125.529 126.581C125.94 127.112 126.865 126.581 126.447 126.05C124.969 124.104 124.023 121.814 123.701 119.4C123.378 116.987 123.694 114.528 124.611 112.269C124.87 111.639 123.842 111.368 123.584 111.988Z" fill="#13161D"/>
<path d="M190.408 258.074C192.368 257.095 194.21 255.903 195.904 254.517C196.003 254.418 196.057 254.284 196.057 254.144C196.057 254.003 196.003 253.869 195.904 253.771C195.801 253.676 195.667 253.623 195.529 253.623C195.39 253.623 195.256 253.676 195.153 253.771C193.523 255.09 191.751 256.223 189.87 257.152C189.257 257.454 189.795 258.366 190.408 258.063V258.074Z" fill="#13161D"/>
<path d="M184.795 253.271C186.581 251.938 188.566 250.889 190.674 250.161C191.319 249.94 191.028 248.919 190.394 249.141C188.186 249.894 186.114 250.977 184.243 252.36C184.129 252.434 184.048 252.547 184.012 252.677C183.977 252.807 183.995 252.944 184.055 253.064C184.126 253.18 184.239 253.264 184.37 253.299C184.501 253.335 184.643 253.317 184.763 253.254L184.795 253.271Z" fill="#13161D"/>
<path d="M181.2 245.964C183.092 244.894 185.065 243.973 187.103 243.216C187.241 243.178 187.358 243.086 187.429 242.963C187.5 242.84 187.521 242.692 187.486 242.555C187.443 242.425 187.351 242.312 187.23 242.249C187.11 242.182 186.965 242.168 186.83 242.203C184.704 242.991 182.645 243.945 180.675 245.06C180.558 245.134 180.477 245.246 180.441 245.38C180.409 245.514 180.431 245.654 180.498 245.77C180.569 245.89 180.679 245.975 180.813 246.013C180.944 246.048 181.086 246.034 181.21 245.971L181.2 245.964Z" fill="#13161D"/>
<path d="M85.1763 47.1474L88.2768 43.9318L85.1763 40.7513L88.2768 37.6729L85.1763 34.4573L88.2768 30.9567L85.1763 27.6672L88.2768 24.4515L85.1763 21.3028L88.2768 18.1223L85.1763 14.3016L86.987 9.35146L82.1538 9.95659L78.9151 6.87817L75.7083 9.95659L72.6114 6.87817L69.3727 9.95659L65.847 6.87817L62.534 9.95659L59.2953 6.87817L56.1239 9.95659L52.9172 6.87817L49.0726 9.95659L45.5894 9.28462L45.9579 13.0702L42.8574 16.2893L45.9579 19.4698L42.8574 22.5482L45.9579 25.7638L42.8574 29.2644L45.9579 32.5504L42.8574 35.7696L45.9579 38.9184L42.8574 42.0988L45.9579 45.9196L44.1472 50.8661L48.9804 50.2645L52.2191 53.3429L55.4259 50.2645L58.5228 53.3429L61.7615 50.2645L65.2872 53.3429L68.6003 50.2645L71.8389 53.3429L75.0103 50.2645L78.2171 53.3429L82.0617 50.2645L85.9382 51.0139L85.1763 47.1474Z" fill="#ED6524"/>
<path d="M82.1437 13.1157H48.9951V47.105H82.1437V13.1157Z" fill="white"/>
<path d="M66.0668 45.6379C67.2999 45.0645 68.3841 44.2236 69.2452 43.1787C70.1027 42.1303 70.7122 40.906 71.0275 39.5902C71.1941 38.8619 71.3075 38.0562 70.9744 37.3526C70.8397 37.0535 70.6236 36.8002 70.3472 36.6243C70.0708 36.4449 69.7519 36.3464 69.4224 36.3429C69.0999 36.3745 68.7952 36.5012 68.5471 36.7052C68.2991 36.9093 68.1184 37.1872 68.0333 37.4968C67.7959 38.2005 68.0333 38.9885 68.3168 39.6605C68.7633 40.7828 69.4401 41.972 70.6378 42.4258C71.9842 42.9324 73.4725 42.1831 74.5178 41.3387C75.5241 40.5014 76.2505 39.3826 76.6048 38.1266C76.8564 37.2295 77.2497 34.8969 75.804 34.7667C75.0635 34.6999 74.6347 35.4317 74.5568 36.072C74.493 36.7756 74.617 37.4828 74.9111 38.1231C75.1981 38.788 75.6446 39.3755 76.208 39.8364C76.7714 40.2938 77.4375 40.614 78.1533 40.7617C78.8195 40.8884 79.1065 39.8716 78.4368 39.745C77.5474 39.5796 76.7643 39.073 76.247 38.3377C75.9883 37.9753 75.797 37.5637 75.6906 37.1309C75.641 36.941 75.6127 36.7439 75.6056 36.5469C75.6162 36.3288 75.6446 36.1107 75.6942 35.8996C75.7296 35.6322 75.7721 35.9664 75.6765 35.8151C75.7084 35.8785 75.7332 35.9418 75.7438 36.0122C75.7792 36.2514 75.7863 36.4941 75.7651 36.7369C75.7438 37.1943 75.6552 37.6481 75.5099 38.0844C75.2123 38.9639 74.6985 39.752 74.0111 40.3817C73.3378 40.9974 72.2713 41.6659 71.3145 41.5181C70.4429 41.3809 69.8972 40.5401 69.5428 39.8118C69.3409 39.4107 69.1814 38.9885 69.068 38.5523C68.9901 38.2005 68.9511 37.3385 69.5358 37.3948C70.0495 37.4441 70.1488 38.1196 70.131 38.5136C70.0921 39.0413 69.9787 39.5655 69.7944 40.0616C69.4401 41.0854 68.8838 42.0247 68.1503 42.8269C67.4203 43.629 66.5309 44.2729 65.5423 44.7232C64.9222 45.0082 65.4608 45.9159 66.0809 45.6344H66.0668V45.6379Z" fill="#13161D"/>
<path d="M134.384 7.6943L160.166 0.119629L152.359 24.4057L149.092 11.4799L134.384 7.6943Z" fill="#13161D"/>
<path d="M159.649 0.151404C155.889 3.81384 152.09 7.43758 148.253 11.0156C147.753 11.4835 148.508 12.2294 149.004 11.7614C152.842 8.17992 156.64 4.5597 160.4 0.900779C160.892 0.422305 160.138 -0.323552 159.649 0.151404Z" fill="#FACB55"/>
<path d="M143.749 15.7616C142.583 17.5805 141.131 19.2024 139.44 20.5569C139.341 20.6554 139.288 20.7891 139.288 20.9298C139.288 21.0706 139.345 21.2043 139.44 21.3028C139.543 21.3978 139.678 21.4505 139.816 21.4505C139.954 21.4505 140.089 21.3978 140.192 21.3028C141.949 19.8849 143.459 18.1892 144.667 16.2858C145.021 15.7088 144.114 15.1811 143.749 15.7546V15.7616Z" fill="#FACB55"/>
<path d="M134.454 25.5702L130.868 29.1236C130.773 29.2221 130.716 29.3558 130.716 29.4965C130.716 29.6373 130.769 29.7674 130.868 29.8695C130.967 29.968 131.102 30.0208 131.244 30.0208C131.386 30.0208 131.52 29.9645 131.619 29.8695L135.205 26.3161C135.258 26.2668 135.301 26.2106 135.329 26.1437C135.358 26.0804 135.375 26.01 135.375 25.9397C135.375 25.8693 135.365 25.7989 135.336 25.7321C135.308 25.6652 135.269 25.6054 135.219 25.5562C135.17 25.5069 135.11 25.4647 135.042 25.4401C134.975 25.4119 134.904 25.4014 134.833 25.4014C134.762 25.4014 134.692 25.419 134.628 25.4471C134.564 25.4753 134.504 25.5175 134.454 25.5702Z" fill="#FACB55"/>
<path d="M127.162 33.1344C126.081 34.693 124.703 36.0264 123.101 37.0572C121.5 38.088 119.714 38.7952 117.84 39.1365C114.785 39.6818 110.43 38.8656 109.69 35.3227C109.353 33.7114 109.97 31.9453 111.029 30.7174C112.089 29.4896 114.371 28.0929 115.876 29.5107C117.294 30.8476 117.269 33.2611 116.939 35.0237C116.504 37.1311 115.717 39.1541 114.615 41.0046C112.411 44.8993 109.24 48.1712 105.402 50.5037C104.817 50.8556 105.353 51.7703 105.941 51.415C109.775 49.0859 112.974 45.8597 115.256 42.0179C116.518 39.9984 117.425 37.782 117.942 35.4635C118.35 33.3772 118.364 30.8511 116.947 29.1096C115.441 27.2626 112.943 27.7481 111.249 29.0568C110.49 29.6444 109.863 30.3797 109.399 31.217C108.938 32.0543 108.651 32.9761 108.559 33.926C108.478 34.8548 108.641 35.7907 109.027 36.6421C109.413 37.4935 110.012 38.2323 110.767 38.7917C112.28 39.9316 114.264 40.3608 116.135 40.3362C120.883 40.2799 125.451 37.4899 128.08 33.6516C128.466 33.0887 127.548 32.561 127.162 33.1204V33.1344Z" fill="#FACB55"/>
<path d="M102.652 53.1774L100.15 54.9611C100.03 55.035 99.9449 55.1511 99.9095 55.2848C99.874 55.4185 99.8917 55.5627 99.9591 55.6859C100.03 55.8055 100.147 55.8899 100.285 55.9251C100.42 55.9603 100.565 55.9392 100.685 55.8723L103.187 54.0886C103.251 54.0534 103.304 54.0077 103.35 53.9549C103.396 53.8986 103.428 53.8353 103.446 53.7685C103.467 53.7016 103.471 53.6277 103.463 53.5574C103.456 53.487 103.432 53.4202 103.396 53.3568C103.361 53.297 103.311 53.2407 103.254 53.1985C103.198 53.1563 103.13 53.1246 103.063 53.107C102.992 53.0894 102.921 53.0859 102.85 53.1C102.78 53.1105 102.712 53.1387 102.652 53.1739V53.1774Z" fill="#FACB55"/>
<path d="M92.1992 236.053C92.1992 236.053 129.295 209.484 134.334 264.568C134.334 264.568 106.341 275.664 92.1992 236.053Z" fill="#F5CDB4"/>
<path d="M82.7383 216.84C82.7383 216.84 102.255 180.371 128.664 209.062C128.664 209.062 106.724 233.407 82.7383 216.84Z" fill="#F5CDB4"/>
<path d="M61.6095 229.653C61.6095 229.653 27.3023 202.563 10.7227 240.303C10.7227 240.303 39.8813 259.875 61.6095 229.653Z" fill="#F5CDB4"/>
<path d="M78.2097 205.311C78.2097 205.311 71.9024 177.349 44.7422 195.889C44.7422 195.889 58.0477 218.156 78.2097 205.311Z" fill="#F5CDB4"/>
<path d="M55.8902 197.779C61.2053 198.176 66.6303 199.432 71.4422 201.74C73.5222 202.736 75.549 204.041 76.9239 205.92C78.3412 207.858 78.9826 210.23 79.2767 212.58C79.5602 215.19 79.67 217.815 79.6027 220.439C79.5708 223.208 79.4114 225.977 79.1491 228.732C78.5822 234.273 77.6928 239.779 76.488 245.222C75.1593 251.403 73.5541 257.535 71.9419 263.639C71.9135 263.773 71.9348 263.91 72.0056 264.026C72.0765 264.142 72.1899 264.227 72.321 264.262C72.4521 264.297 72.5938 264.283 72.7143 264.22C72.8348 264.156 72.9269 264.047 72.9659 263.921C74.4329 258.359 75.8928 252.789 77.1471 247.174C78.4298 241.587 79.4007 235.937 80.0563 230.245C80.6622 224.7 80.9598 219.015 80.4354 213.452C80.2051 210.99 79.7267 208.527 78.4724 206.353C77.2747 204.266 75.3967 202.694 73.3167 201.515C71.0383 200.284 68.6323 199.309 66.1378 198.606C63.466 197.803 60.727 197.237 57.956 196.913C57.2686 196.832 56.5812 196.769 55.8902 196.716C55.1993 196.663 55.2099 197.722 55.8902 197.772V197.782V197.779Z" fill="#F9AF3D"/>
<path d="M80.2155 222.522C81.4167 218.3 85.2294 215.486 89.2264 214.079C91.5615 213.301 93.971 212.763 96.4195 212.474C99.0522 212.122 101.696 211.866 104.346 211.714C107.351 211.542 110.359 211.5 113.371 211.595C114.055 211.616 114.055 210.56 113.371 210.539C107.765 210.37 102.156 210.659 96.5967 211.394C91.8095 212.031 86.8594 213.115 83.114 216.341C81.2643 217.892 79.9108 219.943 79.2162 222.244C79.1879 222.378 79.2092 222.515 79.28 222.631C79.3509 222.747 79.4643 222.832 79.5954 222.867C79.7265 222.902 79.8682 222.888 79.9887 222.821C80.1092 222.754 80.2013 222.649 80.2403 222.522H80.2155Z" fill="#F9AF3D"/>
<path d="M72.5301 262.359C75.2514 253.704 79.2838 244.768 87.2813 239.716C91.0054 237.369 95.3638 236.057 99.793 236.475C102.288 236.767 104.733 237.401 107.05 238.365C109.162 239.195 111.203 240.194 113.152 241.351C117.471 243.92 121.298 247.223 124.459 251.114C124.887 251.646 125.639 250.893 125.21 250.369C122.301 246.787 118.832 243.691 114.934 241.2C112.989 239.955 110.944 238.868 108.822 237.949C106.504 236.908 104.073 236.138 101.579 235.659C96.9902 234.892 92.2775 235.701 88.2167 237.953C84.1383 240.145 80.8004 243.445 78.2208 247.244C75.1522 251.762 73.1466 256.902 71.5202 262.077C71.3147 262.728 72.3423 263.006 72.5442 262.359H72.5301Z" fill="#F9AF3D"/>
<path d="M22.7733 236.782C27.5462 234.762 32.4361 233.024 37.4146 231.575C42.3754 230.129 47.5381 228.697 52.7505 228.802C57.0982 228.887 61.6303 230.21 64.7272 233.376C67.8241 236.542 69.0076 240.901 69.8191 245.074C70.9175 250.805 71.5837 256.607 71.8105 262.436C71.8388 263.112 72.9018 263.115 72.8735 262.436C72.6432 257.015 72.0514 251.614 71.1018 246.27C70.3293 241.904 69.2805 237.351 66.4741 233.784C63.6677 230.217 59.2207 228.341 54.7312 227.866C49.4941 227.311 44.2357 228.57 39.2253 229.956C33.4283 231.546 27.7482 233.524 22.2169 235.867C21.5898 236.134 22.1284 237.042 22.752 236.778H22.7733V236.782Z" fill="#F9AF3D"/>
<path d="M125.189 82.3186C130.826 83.0856 135.95 85.9846 139.49 90.4105C140.485 91.6524 141.332 93.0034 142.016 94.4388C142.31 95.0545 143.228 94.5197 142.934 93.9076C140.301 88.5634 135.681 84.4401 130.047 82.4101C128.477 81.8472 126.847 81.4637 125.189 81.2597C124.512 81.1752 124.519 82.2342 125.189 82.3151V82.3186Z" fill="#13161D"/>
<path d="M133.753 78.1215C135.868 78.5225 137.838 79.4725 139.464 80.8762C141.087 82.28 142.31 84.0848 143.001 86.1113C143.213 86.7551 144.241 86.4807 144.025 85.8298C143.284 83.631 141.97 81.6643 140.216 80.1303C138.462 78.5999 136.329 77.555 134.036 77.1082C133.366 76.9851 133.083 78.0018 133.753 78.125V78.1215Z" fill="#13161D"/>
<path d="M243.521 86.3787C248.368 89.4888 252.004 94.1468 253.828 99.5824C254.339 101.106 254.697 102.678 254.891 104.276C254.973 104.941 256.04 104.951 255.954 104.276C255.203 98.3159 252.425 92.7923 248.077 88.6162C246.844 87.4376 245.494 86.3822 244.052 85.4675C243.475 85.1156 242.94 86.0128 243.514 86.3787H243.521Z" fill="#13161D"/>
<path d="M248.018 81.5411C250.346 82.1884 252.482 83.3741 254.258 85.0065C256.029 86.6389 257.386 88.6654 258.212 90.9206C258.439 91.5574 259.466 91.2724 259.236 90.6391C258.357 88.2081 256.908 86.0233 255.005 84.2606C253.102 82.498 250.806 81.2174 248.301 80.5173C248.17 80.4927 248.032 80.5173 247.918 80.5912C247.805 80.6615 247.724 80.7706 247.688 80.9008C247.653 81.0274 247.667 81.1646 247.727 81.2843C247.787 81.4039 247.89 81.4954 248.018 81.5411Z" fill="#13161D"/>
<path d="M248.609 75.9086C251.217 75.8523 253.811 76.3273 256.228 77.2983C256.362 77.337 256.504 77.3194 256.628 77.2561C256.752 77.1892 256.841 77.0802 256.883 76.9465C256.919 76.8093 256.901 76.6685 256.83 76.5454C256.759 76.4223 256.646 76.3343 256.511 76.2956C254.002 75.2929 251.313 74.8074 248.609 74.8672C247.929 74.8672 247.925 75.9227 248.609 75.9227V75.9086Z" fill="#13161D"/>
</g>
<defs>
<clipPath id="clip0_979_2612">
<rect width="266" height="266" fill="white"/>
</clipPath>
</defs>
</svg>
